<svg width="18" height="19" viewBox="0 0 18 19" fill="none" xmlns="http://www.w3.org/2000/svg">
<path fill-rule="evenodd" clip-rule="evenodd" d="M18 9.96094C18 14.9315 13.9706 18.9609 9 18.9609C4.02944 18.9609 0 14.9315 0 9.96094C0 4.99037 4.02944 0.960938 9 0.960938C13.9706 0.960938 18 4.99037 18 9.96094ZM9.32249 7.60511C8.44711 7.96921 6.69757 8.72281 4.07389 9.8659C3.64784 10.0353 3.42466 10.2011 3.40435 10.3631C3.37001 10.637 3.71301 10.7449 4.18008 10.8918C4.24361 10.9117 4.30944 10.9324 4.37692 10.9544C4.83645 11.1037 5.45459 11.2785 5.77594 11.2854C6.06743 11.2917 6.39277 11.1716 6.75195 10.9249C9.20334 9.27016 10.4688 8.43377 10.5482 8.41573C10.6043 8.40301 10.6819 8.38702 10.7345 8.43379C10.7872 8.48057 10.782 8.56915 10.7764 8.59291C10.7424 8.73776 9.39606 9.98948 8.69931 10.6372C8.4821 10.8392 8.32802 10.9824 8.29653 11.0151C8.22597 11.0884 8.15407 11.1577 8.08496 11.2244C7.65805 11.6359 7.3379 11.9445 8.10268 12.4485C8.47019 12.6907 8.76428 12.891 9.05767 13.0908C9.37809 13.309 9.69768 13.5266 10.1112 13.7977C10.2165 13.8667 10.3171 13.9384 10.4151 14.0083C10.788 14.2741 11.123 14.513 11.5369 14.4749C11.7774 14.4528 12.0258 14.2266 12.152 13.5522C12.4501 11.9583 13.0362 8.50475 13.1716 7.08164C13.1835 6.95696 13.1686 6.79739 13.1566 6.72734C13.1446 6.65729 13.1195 6.55749 13.0285 6.48361C12.9207 6.39611 12.7542 6.37766 12.6797 6.37897C12.3412 6.38493 11.8219 6.56552 9.32249 7.60511Z" fill="currentColor"/>
</svg>
