<svg width="36" height="36" viewBox="0 0 36 36" fill="none" xmlns="http://www.w3.org/2000/svg">
<path d="M18 0C8.05155 0 0 8.05057 0 18C0 27.9485 8.05043 36 18 36C27.9485 36 36 27.9494 36 18C36 8.05148 27.9494 0 18 0ZM24.4855 19.9981L16.0273 24.8854C15.3138 25.2977 14.434 25.2984 13.7192 24.886C13.005 24.4738 12.5651 23.7118 12.5651 22.8873V13.1128C12.5651 12.2882 13.0051 11.5263 13.7192 11.1141C14.0761 10.9081 14.4745 10.8051 14.8728 10.8051C15.2715 10.8051 15.6702 10.9083 16.0273 11.1146L24.4856 16.0018C25.1992 16.4141 25.6387 17.1757 25.6387 17.9999C25.6387 18.8242 25.1991 19.5858 24.4855 19.9981Z" fill="currentColor"/>
</svg>
