<svg width="18" height="18" viewBox="0 0 18 18" fill="none" xmlns="http://www.w3.org/2000/svg">
<path fill-rule="evenodd" clip-rule="evenodd" d="M1.77997 1.45282C0.584961 2.64783 0.584961 4.57115 0.584961 8.41781V9.09781C0.584961 12.9445 0.584961 14.8678 1.77997 16.0628C2.97497 17.2578 4.8983 17.2578 8.74496 17.2578H9.42496C13.2716 17.2578 15.1949 17.2578 16.39 16.0628C17.585 14.8678 17.585 12.9445 17.585 9.09781V8.41781C17.585 4.57115 17.585 2.64783 16.39 1.45282C15.1949 0.257812 13.2716 0.257812 9.42496 0.257812H8.74496C4.8983 0.257812 2.97497 0.257812 1.77997 1.45282ZM3.45375 5.42869C3.54582 9.84869 5.7558 12.5049 9.63039 12.5049H9.85001V9.97617C11.2738 10.1178 12.3504 11.1591 12.7824 12.5049H14.7942C14.2417 10.4933 12.7895 9.38117 11.8828 8.95617C12.7895 8.43201 14.0645 7.15701 14.3691 5.42869H12.5415C12.1449 6.83119 10.9692 8.10617 9.85001 8.22658V5.42869H8.02244V10.3303C6.88912 10.047 5.45832 8.67285 5.39457 5.42869H3.45375Z" fill="currentColor"/>
</svg>
