<svg width="20" height="20" viewBox="0 0 20 20" fill="none" xmlns="http://www.w3.org/2000/svg">
<path d="M9.44805 0.0110843C4.34491 0.252103 0.317815 4.46768 0.333296 9.53531C0.33801 11.0788 0.713667 12.5356 1.37635 13.8229L0.358898 18.7217C0.303859 18.9867 0.544809 19.2188 0.810204 19.1564L5.64966 18.0191C6.89299 18.6335 8.28952 18.9883 9.76752 19.0107C14.9834 19.0897 19.3326 14.9816 19.4951 9.80979C19.6694 4.26595 15.0566 -0.253862 9.44805 0.0110843ZM15.2226 14.769C13.8053 16.1748 11.9209 16.949 9.9166 16.949C8.743 16.949 7.6194 16.6878 6.5769 16.1728L5.90295 15.8397L2.93586 16.537L3.56042 13.5297L3.22838 12.8848C2.6872 11.8335 2.41279 10.6966 2.41279 9.50588C2.41279 7.51773 3.19331 5.64862 4.61058 4.24275C6.0152 2.84949 7.93031 2.06268 9.91674 2.06268C11.921 2.06272 13.8053 2.83693 15.2226 4.24271C16.6399 5.64853 17.4204 7.51764 17.4205 9.50574C17.4204 11.4762 16.6272 13.3758 15.2226 14.769Z" fill="currentColor"/>
<path d="M14.7892 11.6139L12.7743 11.0875C12.5094 11.0184 12.2242 11.0867 12.0312 11.2656L11.5384 11.7223C11.3307 11.9149 11.0154 11.9768 10.7404 11.8756C9.78729 11.5247 7.78228 9.90284 7.27024 9.09161C7.12252 8.8576 7.14695 8.56504 7.32833 8.35152L7.7585 7.84521C7.92704 7.64684 7.9626 7.38043 7.85115 7.15112L7.00344 5.40687C6.80039 4.98909 6.21356 4.86747 5.83019 5.16245C5.26784 5.59515 4.60061 6.25269 4.5195 6.98114C4.37649 8.26545 4.98193 9.88445 7.27139 11.8284C9.91635 14.0743 12.0344 14.371 13.4135 14.0671C14.1957 13.8947 14.8208 13.2038 15.2153 12.638C15.4842 12.2522 15.2719 11.74 14.7892 11.6139Z" fill="currentColor"/>
</svg>
