<svg width="18" height="19" viewBox="0 0 18 19" fill="none" xmlns="http://www.w3.org/2000/svg">
<path fill-rule="evenodd" clip-rule="evenodd" d="M9.03375 0.960938C11.43 0.960938 13.68 1.89469 15.39 3.54769L15.3787 3.57694C20.9827 9.15919 17.013 18.8072 9.03825 18.8072C8.95418 18.7965 8.83955 18.7902 8.69773 18.7823C7.96026 18.7415 6.48738 18.6598 4.75125 17.7219L0 18.9609L1.272 14.3394C-2.16225 8.41219 2.15625 0.960938 9.03375 0.960938ZM11.5935 11.0229C11.7982 11.0972 12.9045 11.5787 13.1302 11.6912C13.1543 11.702 13.1775 11.7123 13.1998 11.7223C13.3857 11.805 13.5082 11.8595 13.5577 11.9499C13.614 12.0512 13.614 12.4899 13.4227 13.0187C13.236 13.5474 12.3412 14.0199 11.9107 14.0882C11.5245 14.1437 11.0362 14.1677 10.5007 13.9974C8.51772 13.3164 7.43322 12.8259 5.39772 10.1619C4.36197 8.70242 4.05672 7.32992 5.26722 5.99942C5.54547 5.70992 5.86122 5.70392 6.29322 5.74142C6.30685 5.74142 6.32092 5.74089 6.3354 5.74034C6.46831 5.73528 6.6349 5.72894 6.79722 6.12392C6.87943 6.31663 7.01168 6.63681 7.13902 6.94511C7.3021 7.33992 7.45713 7.71525 7.48872 7.77842C7.54422 7.89017 7.58247 8.01392 7.50747 8.17142C7.33105 8.50528 7.14731 8.708 7.01022 8.85924C6.82211 9.06679 6.72185 9.1774 6.84897 9.39692C6.98097 9.62192 7.42797 10.3532 8.09397 10.9494C8.80956 11.5897 9.43216 11.8596 9.74808 11.9965C9.80963 12.0232 9.85953 12.0448 9.89622 12.0632C10.119 12.1644 10.2495 12.1532 10.3807 12.0069C10.6361 11.7144 10.8067 11.4946 10.9314 11.3339C11.2377 10.9393 11.2667 10.9019 11.5935 11.0229Z" fill="currentColor"/>
</svg>
