<svg width="100" height="100" viewBox="0 0 100 100" fill="none" xmlns="http://www.w3.org/2000/svg">
<path d="M99.0844 94.6312L68.7188 64.0812C74.3781 57.3031 77.7875 48.5812 77.7875 39.0593C77.7875 17.4843 60.3 -0.00317383 38.725 -0.00317383C17.15 -0.00317383 -0.337494 17.4843 -0.337494 39.0593C-0.337494 60.6343 17.15 78.1218 38.725 78.1218C48.525 78.1218 57.4813 74.5031 64.3406 68.5374L94.6625 99.0499C95.8813 100.269 97.8625 100.269 99.0844 99.0499C100.306 97.8312 100.303 95.8562 99.0844 94.6312ZM38.7281 71.9249C20.5781 71.9249 5.86251 57.2093 5.86251 39.0593C5.86251 20.9093 20.575 6.1937 38.7281 6.1937C56.8781 6.1937 71.5906 20.9062 71.5906 39.0593C71.5906 57.2125 56.8781 71.9249 38.7281 71.9249Z" fill="currentColor"/>
</svg>
