<svg width="100" height="64" viewBox="0 0 100 64" fill="none" xmlns="http://www.w3.org/2000/svg">
<g id="_&#208;&#161;&#208;&#187;&#208;&#190;&#208;&#185;_1" clip-path="url(#clip0_228_194)">
<path id="Vector" d="M59.4757 21.4968C59.6806 21.8703 60.0112 22.1216 60.3484 22.3497C61.0459 22.8158 61.2013 23.4505 61.0095 24.2174C59.5848 29.88 56.3485 34.0617 50.9801 36.5112C50.2429 36.8484 49.5752 36.8153 48.8546 36.4847C43.4828 34.0286 40.273 29.8238 38.8714 24.1546C38.6764 23.3612 38.997 22.7794 39.6119 22.2902C41.4598 20.8158 42.0052 19.1299 41.311 16.8986C40.9474 15.735 40.2664 14.8028 39.0598 14.3599C37.7541 13.4574 37.8202 12.2244 39.2086 11.5137C39.8697 11.1732 40.5606 10.9451 41.3011 10.8426C43.2779 10.5715 45.2679 10.522 47.2579 10.5087C50.3289 10.4889 53.3999 10.479 56.4708 10.5848C57.9286 10.6344 59.3501 10.8492 60.6889 11.4806C61.3103 11.7715 61.7169 12.1979 61.7831 12.8987C61.8492 13.5929 61.4855 14.026 60.917 14.3532C58.9071 15.5069 58.2261 17.2722 58.5666 19.5002C58.6823 20.2506 59.0129 20.8985 59.4724 21.4902L59.4757 21.4968Z" fill="#302F30"/>
<path id="Vector_2" d="M35.2582 33.5361C33.7442 33.6352 32.5575 32.7063 31.6352 31.394C31.0005 30.4915 31.1757 29.4403 31.417 28.4453C31.7278 27.1759 32.3823 26.0586 33.1228 25.0008C33.4599 24.5182 33.4533 24.214 32.9112 23.8901C32.3724 23.5694 31.903 23.1364 31.3906 22.7695C30.9708 22.472 30.8154 22.0422 30.7625 21.5695C30.7129 21.1265 30.6997 20.6076 31.0765 20.3431C31.4633 20.0687 31.7575 20.5547 32.055 20.7332C32.898 21.2389 33.7079 21.8075 34.5211 22.3596C35.0566 22.7232 35.4433 22.5678 35.5392 21.9133C35.6086 21.4406 35.3871 21.077 35.083 20.7299C34.2963 19.8241 33.2649 19.2291 32.3063 18.5448C31.4369 17.9233 31.1823 17.1068 31.2881 16.1052C31.3509 15.5168 31.6352 15.3681 32.1112 15.7119C33.2616 16.5482 34.3987 17.4044 35.5392 18.2539C36.0218 18.6142 36.4979 18.9845 36.9838 19.3448C37.278 19.563 37.4829 19.5002 37.5854 19.1299C37.7937 18.3828 37.6615 17.7217 37.1193 17.1531C36.1309 16.1151 34.9673 15.2788 33.8731 14.3664C32.9674 13.6127 32.055 12.8657 31.1261 12.1417C30.6005 11.7318 30.8683 11.4608 31.2418 11.1963C32.3195 10.4393 32.0484 8.8658 31.1889 8.2873C30.5212 7.83442 29.7708 8.02285 29.0502 8.1683C28.8155 8.21458 28.5444 8.41953 28.3758 8.15508C28.2039 7.88401 28.432 7.62617 28.5973 7.41791C28.8188 7.14023 29.0601 6.85595 29.4039 6.73033C30.141 6.45926 29.8601 6.16506 29.4336 5.87747C28.313 5.12047 27.5494 4.14199 27.3709 2.7536C27.2849 2.07924 27.4337 1.44125 27.5957 0.806559C27.718 0.333847 27.9957 0.267734 28.3593 0.647886C30.0716 2.43295 31.9525 4.05604 33.5161 5.97994C34.3459 6.99809 34.5706 8.25755 34.7029 9.51701C34.7789 10.2244 34.8516 10.9451 34.8483 11.6492C34.845 12.4921 35.1822 13.0475 35.7838 13.5466C36.9276 14.4888 38.0416 15.4672 39.192 16.3994C40.6531 17.5829 40.6828 18.3299 39.582 19.8572C37.7838 22.3496 35.7111 24.624 34.0021 27.1825C33.7244 27.5991 33.5095 28.0354 33.3608 28.5114C33.0467 29.5197 33.3046 30.356 34.1244 31.0072C34.8715 31.5989 35.6648 31.7146 36.5772 31.3179C37.5259 30.9047 38.2003 30.2072 38.8184 29.4337C39.1854 28.9742 39.4135 28.9511 39.7044 29.5031C40.3126 30.6502 40.3093 30.6204 39.4035 31.6055C38.3358 32.7658 37.1061 33.5493 35.2516 33.5294L35.2582 33.5361Z" fill="#BEAA6E"/>
<path id="Vector_3" d="M97.1869 50.1965C97.1869 48.0908 97.1968 45.9884 97.1737 43.8826C97.1737 43.5917 97.0646 43.2711 96.9092 43.0232C96.5258 42.4116 96.6514 42.2166 97.3687 42.2629C98.053 42.3091 98.7406 42.2761 99.4282 42.2629C99.8282 42.2562 99.9472 42.4281 99.7455 42.7587C99.3059 43.4793 99.3059 44.276 99.3025 45.0727C99.2959 46.7222 99.2926 48.3717 99.2926 50.0213C99.2926 51.2245 99.2001 52.4443 100 53.6509C98.9125 53.6509 97.9704 53.6509 97.0316 53.6509C96.7373 53.6509 96.6117 53.4228 96.4828 53.2113C95.3126 51.2576 94.1325 49.3073 92.9821 47.3404C92.6714 46.8115 92.4565 46.2264 92.1358 45.5454C91.8383 46.266 92.1094 46.8214 92.1127 47.3734C92.1127 48.6362 92.1325 49.9023 92.1358 51.165C92.1358 51.8559 92.1325 52.5336 92.5391 53.1484C92.7408 53.4493 92.6648 53.6641 92.2416 53.6575C91.445 53.6476 90.6483 53.641 89.8516 53.6509C89.3987 53.6542 89.2864 53.4592 89.5343 53.1055C89.9673 52.4807 90.0301 51.7766 90.0334 51.0593C90.0467 48.861 90.0434 46.6627 90.04 44.4611C90.04 43.9025 89.9244 43.3636 89.6268 42.8876C89.3822 42.4976 89.4054 42.2695 89.9243 42.2695C90.7475 42.2695 91.5739 42.2794 92.397 42.2695C92.6912 42.2662 92.8367 42.4116 92.9523 42.6595C93.9044 44.676 95.2002 46.4941 96.2283 48.4676C96.5291 49.0461 96.7935 49.6477 97.0745 50.2395C97.1109 50.2262 97.1472 50.213 97.1836 50.1998L97.1869 50.1965Z" fill="#2F2F2F"/>
<path id="Vector_4" d="M82.5229 51.1919C82.1923 51.1919 81.865 51.1919 81.5345 51.1919C80.2816 51.1985 79.8684 51.5853 79.9973 52.8745C80.0667 53.5555 79.8552 53.6877 79.2568 53.648C78.6552 53.6051 78.0503 53.6282 77.4453 53.6315C77.0652 53.6315 76.8933 53.4861 77.1544 53.1489C78.5891 51.2911 78.9362 48.9804 79.7791 46.8747C80.0866 46.1111 80.3279 45.3243 80.6023 44.5475C80.7609 44.1012 80.9361 43.6153 80.7907 43.179C80.5031 42.3228 80.87 42.2104 81.5973 42.2534C82.4171 42.303 83.2435 42.2633 84.0699 42.2732C84.2782 42.2732 84.622 42.26 84.5129 42.574C84.06 43.893 84.7872 44.9938 85.1509 46.1408C85.7062 47.8929 86.3707 49.6118 87.0054 51.3374C87.2434 51.9853 87.5938 52.5737 88.0301 53.1125C88.3045 53.453 88.245 53.648 87.7623 53.6414C87.0219 53.6282 86.2781 53.6315 85.5376 53.648C85.141 53.6546 84.8732 53.5753 84.9922 53.0927C85.0054 53.0398 85.012 52.9836 85.012 52.9307C85.0484 51.5291 84.731 51.1985 83.346 51.1886C83.0716 51.1886 82.7972 51.1886 82.5229 51.1886V51.1919Z" fill="#303030"/>
<path id="Vector_5" d="M45.4993 42.2234C44.1737 43.5622 43.3109 45.1456 42.1771 46.5109C41.7738 46.9935 41.7771 47.3803 42.1506 47.8959C43.0663 49.162 43.9225 50.4678 44.7919 51.7669C45.1919 52.3619 45.7274 52.8214 46.3786 53.2842C45.4398 53.6445 44.5572 53.6776 43.701 53.8296C43.4531 53.8726 43.2977 53.7272 43.182 53.5123C42.1672 51.6248 40.8879 49.9025 39.6747 48.1439C39.3474 47.6679 39.321 47.3373 39.6582 46.8282C40.6102 45.3869 41.7804 44.0911 42.5209 42.5143C42.6134 42.316 42.749 42.2168 42.9671 42.2168C43.8101 42.2168 44.6563 42.2168 45.4993 42.2168V42.2234Z" fill="#313131"/>
<path id="Vector_6" d="M36.769 47.8432C36.769 46.7159 36.7756 45.5887 36.769 44.4648C36.7624 43.8863 36.7194 43.3144 36.3921 42.802C36.1475 42.4185 36.2037 42.2004 36.7227 42.2103C37.5194 42.2301 38.316 42.2202 39.1127 42.2169C39.4929 42.2169 39.6449 42.4086 39.4697 42.7326C38.9144 43.7606 39.0466 44.868 39.0433 45.9622C39.0367 47.658 39.0466 49.3538 39.0433 51.0497C39.0433 51.7736 39.0929 52.4843 39.4962 53.1124C39.721 53.4628 39.6449 53.6116 39.2317 53.6083C38.3788 53.6016 37.5293 53.6083 36.6764 53.595C36.3855 53.5884 36.0483 53.5256 36.3062 53.119C36.8219 52.2992 36.7855 51.3901 36.7855 50.4844C36.7855 49.6051 36.7855 48.7258 36.7855 47.8465H36.7756L36.769 47.8432Z" fill="#303030"/>
<path id="Vector_7" d="M74.0603 53.6113C73.5413 53.6113 72.8405 53.8196 72.543 53.5618C72.0967 53.175 72.8802 52.7188 72.8769 52.2064C72.8735 51.7965 72.9793 51.3899 72.9826 50.98C72.9959 49.0297 72.9826 47.0793 72.9892 45.129C72.9892 44.2993 72.9892 43.4794 72.5099 42.7456C72.3347 42.4811 72.3612 42.2696 72.7446 42.2663C73.6504 42.2597 74.5561 42.2563 75.4652 42.2563C75.8883 42.2563 75.9247 42.4877 75.7462 42.7919C75.2768 43.5885 75.2801 44.4678 75.2735 45.3505C75.2636 47.1917 75.2404 49.033 75.2239 50.8709C75.2173 51.6445 75.2735 52.4114 75.69 53.0957C75.9181 53.4692 75.8387 53.651 75.3792 53.6378C74.9396 53.6279 74.4999 53.6378 74.0603 53.6378C74.0603 53.6279 74.0603 53.618 74.0603 53.6113Z" fill="#313131"/>
<path id="Vector_8" d="M45.5357 58.9338C46.3422 58.9173 47.0431 59.1421 47.5587 59.8098C47.724 60.0214 47.8629 60.223 47.6315 60.4544C47.4265 60.6561 47.1852 60.6329 46.9604 60.471C46.8712 60.4081 46.7885 60.3321 46.7191 60.2495C46.2927 59.7569 45.7472 59.5586 45.1787 59.8693C44.4878 60.2462 44.263 60.8941 44.3655 61.6874C44.4646 62.4478 44.9076 62.8643 45.5919 63.0494C46.1604 63.2014 46.5009 62.7882 46.8447 62.4312C47.0629 62.2064 47.2811 61.9651 47.5951 62.2924C47.9157 62.6296 47.6116 62.8246 47.41 63.0395C46.5604 63.9353 45.3869 64.1667 44.2465 63.6642C43.2878 63.2411 42.7225 62.2858 42.8515 61.1123C43.0035 59.7305 44.0746 58.8578 45.539 58.9371L45.5357 58.9338Z" fill="#BDAF85"/>
<path id="Vector_9" d="M48.4644 61.4226C48.4545 58.4772 48.2859 58.9896 50.8974 58.9665C51.2776 58.9632 51.9751 58.7086 51.9652 59.3301C51.9585 59.8458 51.2908 59.4954 50.9338 59.6012C50.8313 59.6309 50.7156 59.6111 50.6065 59.6045C50.1966 59.5846 49.9024 59.6838 49.9123 60.183C49.9223 60.6557 50.19 60.7582 50.6065 60.7879C50.9933 60.8177 51.6743 60.5235 51.661 61.178C51.6478 61.8127 50.9635 61.5449 50.5834 61.535C49.9355 61.5218 49.8991 61.8622 49.8859 62.3614C49.876 62.8837 50.0379 63.1349 50.59 63.082C50.8875 63.0523 51.1916 63.0688 51.4958 63.0721C51.7602 63.0754 52.018 63.1316 52.018 63.4589C52.018 63.7828 51.7338 63.7366 51.5255 63.7399C50.7024 63.7498 49.8793 63.7399 49.0562 63.7498C48.6396 63.7531 48.4545 63.5581 48.4611 63.1515C48.4678 62.5763 48.4611 61.9978 48.4611 61.4226H48.4644Z" fill="#BDAE80"/>
<path id="Vector_10" d="M32.8583 63.8688C32.3195 63.8126 31.7079 63.763 31.341 63.1746C31.2154 62.9729 31.0104 62.7481 31.2716 62.5167C31.5129 62.3052 31.7773 62.3448 32.0153 62.5498C32.1806 62.6919 32.3195 62.8804 32.5079 62.9828C32.7889 63.1349 33.1161 63.1613 33.3277 62.8737C33.5624 62.5498 33.3508 62.3382 33.0864 62.1267C32.6335 61.7664 32.0418 61.6473 31.6253 61.2176C30.8286 60.3945 31.0567 59.3896 32.1608 59.059C32.9938 58.8111 33.7938 58.821 34.4318 59.5416C34.6136 59.7466 34.8847 59.9581 34.6467 60.2424C34.3888 60.5466 34.1111 60.3879 33.8665 60.1532C33.688 59.9813 33.5227 59.7763 33.3079 59.6772C33.0599 59.5615 32.7459 59.5449 32.5443 59.7829C32.3062 60.0672 32.5343 60.2755 32.7195 60.4904C32.9806 60.7978 33.3541 60.9102 33.6847 61.1019C34.3558 61.492 34.9508 61.9316 34.7293 62.844C34.5872 63.4291 33.7938 63.8688 32.8583 63.8688Z" fill="#C0B188"/>
<path id="Vector_11" d="M63.3764 60.1766C63.4987 60.4344 63.6838 60.5038 63.8392 60.6129C64.7879 61.284 64.9863 61.998 64.4772 62.8476C63.9781 63.6839 62.7219 64.1434 61.9219 63.7831C61.6905 63.6806 61.4426 63.5616 61.4955 63.2575C61.555 62.9104 61.8459 62.8806 62.1335 62.8872C62.2426 62.8872 62.3649 62.8806 62.4574 62.9269C62.9268 63.1715 63.3764 63.1352 63.5351 62.6129C63.6805 62.1402 63.4227 61.7071 62.9731 61.446C62.8541 61.3765 62.7186 61.3435 62.5963 61.284C62.2822 61.122 61.6872 61.5319 61.6376 60.8311C61.6079 60.4014 62.3913 59.1849 62.788 59.1353C63.3004 59.0725 63.826 59.1122 64.345 59.1221C64.5367 59.1254 64.6359 59.2741 64.6557 59.446C64.6822 59.6344 64.54 59.7733 64.4012 59.8295C64.0805 59.965 63.7367 60.0543 63.3731 60.17L63.3764 60.1766Z" fill="#B9AC7D"/>
<path id="Vector_12" d="M53.8793 60.1767C54.5437 59.7272 55.0363 59.5024 55.4462 59.1288C55.8296 58.7784 56.1833 58.9867 56.1899 59.5222C56.2065 60.7552 56.1866 61.9915 56.1933 63.2246C56.1933 63.6179 56.0081 63.7568 55.6379 63.7535C55.2478 63.7535 54.8974 63.7105 54.8908 63.2146C54.8875 62.6957 54.8478 62.1634 54.9404 61.6577C55.0792 60.8941 55.0594 60.2858 53.876 60.1767H53.8793Z" fill="#C0B084"/>
<path id="Vector_13" d="M36.9078 61.4327C36.9078 61.9815 36.888 62.5269 36.9144 63.0756C36.9375 63.5517 36.7888 63.7797 36.2698 63.7665C35.7872 63.7566 35.5624 63.5748 35.569 63.0889C35.5789 61.9682 35.5789 60.8443 35.569 59.7237C35.569 59.2245 35.8169 59.0659 36.2896 59.0725C36.7491 59.0758 36.9276 59.2642 36.9144 59.7138C36.8946 60.289 36.9111 60.8641 36.9078 61.436V61.4327Z" fill="#BEAB78"/>
<path id="Vector_14" d="M69.3796 51.2116C69.3961 49.2348 69.4027 47.258 69.3796 45.2812C69.3697 44.4217 69.4457 43.5887 69.7267 42.7755C70.1961 42.4515 70.044 42.2135 69.5812 42.1838C68.7052 42.1309 67.8259 42.154 66.9499 42.1606C66.6227 42.1606 66.5202 42.3226 66.6656 42.6433C67.7102 44.9506 66.897 47.3737 67.145 49.7505C65.8822 47.2646 64.2294 45.0399 62.9798 42.5838C62.9434 42.3028 62.7947 42.1375 62.5038 42.1342C61.5584 42.1276 60.6129 42.1078 59.6675 42.1375C59.0824 42.1573 59.2609 42.478 59.4791 42.7755C59.5254 42.8317 59.5717 42.8879 59.6179 42.9441C59.8692 43.6482 59.9816 44.3688 59.9716 45.1225C59.9485 46.8547 59.9716 48.5869 59.9716 50.3191C59.9716 51.3372 59.9617 52.352 59.3535 53.2479C59.1584 53.5355 59.2907 53.7338 59.6179 53.7338C60.5237 53.7404 61.4294 53.7206 62.3319 53.7074C62.8277 53.7008 62.9104 53.4594 62.6559 53.0793C62.279 52.5206 62.2757 51.8959 62.2559 51.2612C62.2096 49.6976 62.3881 48.1307 62.1633 46.5704C62.1501 46.4679 62.1071 46.3324 62.2526 46.296C62.4575 46.2432 62.4641 46.5208 62.6294 46.5506C63.7335 48.7918 65.2442 50.7918 66.4144 52.9966C66.4772 53.5256 66.7714 53.7404 67.3069 53.7173C68.021 53.6842 68.735 53.6974 69.449 53.7008C69.9085 53.7008 70.1829 53.6082 69.8391 53.0958C69.4523 52.5239 69.3796 51.8859 69.3829 51.2083L69.3796 51.2116Z" fill="#313131"/>
<path id="Vector_15" d="M49.8231 12.5021C52.6296 12.436 55.4262 12.5451 58.2195 12.8294C58.4708 12.8558 58.8278 12.7633 58.9303 13.1037C59.0228 13.4145 58.679 13.4905 58.5104 13.6459C55.8163 16.1747 55.7833 20.7332 58.5005 23.2224C59.0757 23.748 59.1055 24.1778 58.8939 24.862C57.5518 29.209 54.9304 32.4486 50.8347 34.4849C50.2066 34.7989 49.6777 34.7989 49.0529 34.4849C44.8745 32.399 42.2399 29.0635 40.9474 24.6108C40.8019 24.1083 40.8449 23.7811 41.2746 23.3976C44.1969 20.7961 44.2398 16.3202 41.4069 13.5897C41.2614 13.4508 40.9606 13.3847 41.0432 13.1004C41.1358 12.7897 41.4531 12.8624 41.6779 12.836C44.3853 12.5153 47.1059 12.4823 49.8264 12.5021H49.8231Z" fill="#FEFEFE"/>
<path id="Vector_16" d="M9.45095 53.3669C8.64436 53.509 7.83778 53.6445 7.0345 53.7999C6.65104 53.8726 6.49237 53.6743 6.35683 53.3669C5.61306 51.6777 4.55855 50.1637 3.66932 48.5571C3.55362 48.3489 3.27925 48.1571 3.38503 47.9191C3.50073 47.6514 3.82138 47.7704 4.05939 47.7604C4.89903 47.734 5.65934 47.5423 6.01304 46.6762C6.3403 45.8795 6.2775 45.0994 5.68578 44.4415C4.99489 43.6779 4.066 43.7275 3.15363 43.8102C2.82307 43.8399 2.83298 44.1407 2.83298 44.3887C2.83298 46.8349 2.82637 49.2811 2.83629 51.7273C2.83629 52.1702 2.9586 52.6066 3.20322 52.9801C3.52387 53.4627 3.26933 53.5388 2.85282 53.5388C2.08259 53.5388 1.31237 53.5388 0.545456 53.5487C0.0793552 53.5553 -0.158653 53.4627 0.132246 52.9371C0.485953 52.2991 0.591735 51.5983 0.588429 50.8711C0.581818 48.8381 0.595041 46.8018 0.598346 44.7688C0.598346 44.0482 0.532233 43.3474 0.12894 42.716C0.0165474 42.5375 -0.132208 42.2201 0.238028 42.2367C2.23135 42.3226 4.25442 41.9061 6.21138 42.5243C7.46093 42.9209 8.29396 43.7573 8.43941 45.106C8.59478 46.534 8.29396 47.8166 6.90888 48.5538C6.35022 48.8513 6.40311 49.1587 6.6874 49.5918C7.52374 50.8678 8.15181 52.2991 9.52367 53.1685C9.50053 53.2346 9.47409 53.2974 9.45095 53.3636V53.3669Z" fill="#2F2F2F"/>
<path id="Vector_17" d="M22.5613 42.207C24.6042 42.207 26.4157 42.207 28.2272 42.207C29.9164 42.207 29.923 42.207 30.1214 43.9194C30.1511 44.1706 30.4023 44.5012 30.1214 44.6731C29.8338 44.8483 29.6619 44.4582 29.4371 44.3293C28.3264 43.6814 27.1033 43.8037 25.9 43.8004C25.6356 43.8004 25.5166 43.9822 25.4835 44.2268C25.4736 44.3094 25.4802 44.3921 25.4736 44.4747C25.3854 46.0901 26.1854 46.8956 27.8735 46.8912C28.8608 46.889 29.2729 47.3716 29.1098 48.3391C29.0834 48.501 29.0437 48.663 29.0272 48.825C28.971 49.3638 28.7991 49.4498 28.3892 49.0432C27.6785 48.3391 26.7562 48.511 25.8901 48.5341C25.4868 48.544 25.467 48.9076 25.4802 49.2184C25.5397 50.5241 25.2686 51.8662 25.9529 53.0992C26.138 53.4298 25.9132 53.5488 25.619 53.5521C24.7959 53.5587 23.9695 53.5521 23.1464 53.5521C22.7464 53.5521 22.5712 53.4364 22.8257 53.01C23.2026 52.3753 23.2522 51.6613 23.2489 50.9373C23.2389 49.1225 23.2522 47.3077 23.2489 45.4962C23.2489 44.4318 23.3877 43.3475 22.5646 42.2103L22.5613 42.207Z" fill="#2F2F2F"/>
<path id="Vector_18" d="M3.08093 48.4907C3.60983 48.9271 3.85776 49.2808 3.64289 49.7932C3.57678 49.9551 3.36521 50.0874 3.24621 49.9651C2.87267 49.5816 3.12059 49.1056 3.08093 48.4907Z" fill="#FEFEFE"/>
<path id="Vector_19" d="M82.4866 49.6477C80.89 49.6477 80.8999 49.6477 81.4189 48.1404C81.723 47.2577 81.9809 46.3619 82.2618 45.4727C82.3081 45.3272 82.2916 45.1091 82.523 45.1355C82.675 45.152 82.7081 45.3173 82.7478 45.4495C83.1213 46.6264 83.4915 47.8032 83.8783 48.9767C84.0337 49.4494 83.8783 49.6577 83.3924 49.6511C83.0916 49.6477 82.7874 49.6511 82.4866 49.6511V49.6477Z" fill="#EFEFEF"/>
<path id="Vector_20" d="M58.008 53.0429C57.4725 52.3388 57.0725 51.5587 56.7816 50.7256C56.1006 48.7852 55.4229 46.8448 54.7486 44.901C54.5172 44.23 54.18 43.5391 54.461 42.8317C54.7155 42.1904 54.3783 42.2168 53.9519 42.2168C53.0726 42.2168 52.1933 42.23 51.3173 42.197C50.7487 42.1772 50.5669 42.3292 50.8115 42.8978C50.9702 43.2581 50.8975 43.6548 50.7685 44.025C50.5305 44.7258 50.3124 45.4365 50.0413 46.1241C49.1157 48.4612 48.7058 51.0033 47.2282 53.1189C46.9869 53.466 47.1422 53.6214 47.5257 53.6082C48.1273 53.5883 48.7323 53.5288 49.3339 53.5487C49.8992 53.5685 50.081 53.4164 50.0479 52.7983C49.9752 51.4198 50.2595 51.1719 51.5884 51.1818C51.8627 51.1818 52.1371 51.1818 52.4115 51.1818V51.1719C52.7685 51.1719 53.1255 51.1851 53.4825 51.1719C54.6825 51.119 54.8345 51.2347 55.0064 52.4247C55.0329 52.6132 55.0659 52.8148 55.0263 52.9966C54.9238 53.4793 55.1089 53.6511 55.5816 53.6379C56.2956 53.6148 57.0097 53.6148 57.7237 53.6181C58.2295 53.6181 58.322 53.4561 58.008 53.0429Z" fill="#313131"/>
<path id="Vector_21" d="M57.0129 10.4226C57.5022 10.0458 58.0212 9.93006 58.5732 10.2705C58.679 10.3367 58.7914 10.4457 58.7418 10.6044C58.7021 10.73 58.5699 10.7697 58.4807 10.73C58.0113 10.5185 57.4592 10.7234 57.0129 10.4226Z" fill="#FEFEFE"/>
<path id="Vector_22" d="M70.5927 6.52234C70.1465 6.25789 70.1299 6.21161 70.5861 5.91079C72.391 4.72736 73.1315 2.69437 72.5001 0.83658C72.2257 0.0299948 71.9976 -0.0295074 71.3861 0.578737C69.8258 2.1291 68.2655 3.67946 66.7218 5.24966C65.8491 6.13888 65.4227 7.24959 65.2541 8.46608C65.0921 9.63298 64.9466 10.7999 64.9235 11.9767C64.9136 12.4527 64.6392 12.7635 64.2789 13.0643C62.8541 14.2642 61.4294 15.4675 60.0542 16.7204C59.2543 17.4509 59.1452 18.2277 59.6543 18.9947C60.0443 19.5831 60.5203 20.1153 60.9567 20.6706C61.9418 21.9532 62.9467 23.216 63.902 24.5184C64.659 25.5498 65.5813 26.482 66.0772 27.6853C66.3615 28.3795 66.8805 29.0604 66.3482 29.91C65.3466 31.5033 63.6178 31.7513 62.2591 30.4323C61.8062 29.9926 61.3864 29.5199 60.9633 29.0538C60.8344 28.9117 60.7517 28.7332 60.5038 28.8191C59.8691 29.0373 59.4691 30.462 59.8394 31.0339C60.2096 31.6091 60.7451 31.986 61.2509 32.4025C63.3467 34.1214 66.573 34.0388 68.206 31.5463C69.2044 30.0224 68.7085 28.4357 68.1003 26.9184C67.8391 26.2671 67.5185 25.6258 67.0623 25.0705C66.5896 24.4953 66.7482 24.0259 67.3201 23.6292C67.8622 23.2557 68.4242 22.9086 68.8705 22.4094C69.2341 22.0061 69.3895 20.7533 69.1085 20.3169C68.8936 19.9864 68.6391 19.9004 68.2854 20.1649C67.6738 20.6177 67.0391 21.0409 66.4144 21.4772C66.1301 21.464 65.978 21.6789 65.7929 21.8375C65.4954 22.0921 65.1185 22.4094 64.788 22.1549C64.388 21.8441 64.5863 21.3516 64.7847 20.9483C64.8442 20.8293 64.9367 20.7202 65.0326 20.6244C65.6937 19.9665 66.3912 19.3484 67.1912 18.8591C68.4738 18.0757 69.0258 16.8625 68.6424 15.689C68.4804 15.1931 68.249 15.0642 67.8094 15.3882C66.3582 16.4592 64.9037 17.5203 63.4558 18.5914C63.2012 18.7798 62.9599 19.1963 62.6459 19.0112C62.3021 18.8062 62.398 18.3434 62.4277 17.9567C62.4575 17.5831 62.6955 17.3716 62.9236 17.1336C64.6657 15.3386 66.7515 13.9436 68.6391 12.3172C69.1779 11.8544 69.4589 11.5933 68.7713 11.0115C68.1201 10.4594 68.054 9.68918 68.4044 8.90574C68.768 8.09254 69.4754 8.04626 70.2159 8.13551C70.5101 8.17188 70.7944 8.29418 71.0853 8.38344C71.3035 8.44955 71.5183 8.48261 71.7067 8.31402C71.9282 8.11237 71.7596 7.8942 71.6902 7.70577C71.4952 7.16034 71.0555 6.79671 70.5894 6.52565L70.5927 6.52234Z" fill="#BEAA6F"/>
<path id="Vector_23" d="M68.7183 60.7583C68.5861 59.9055 67.8556 59.1617 67.1647 59.0724C66.0341 58.927 65.5052 59.5914 65.1879 60.312C65.049 60.6261 65.0259 61.0029 64.9895 61.3533C64.8804 62.3616 65.5151 63.5119 66.3085 63.7698C67.7233 64.2326 68.7349 63.2905 68.7249 61.4955C68.7249 61.2509 68.7547 60.9996 68.7183 60.7583ZM67.2308 62.9004C67.0853 63.2376 66.8572 63.2739 66.6159 62.9632C66.3052 62.5599 66.3052 60.2889 66.6424 59.9154C66.9002 59.6311 67.1151 59.7435 67.2605 60.0674C67.4721 60.5368 67.4027 61.036 67.4192 61.5252C67.4456 61.9946 67.4159 62.464 67.2308 62.8971V62.9004Z" fill="#BEAD7C"/>
<path id="Vector_24" d="M61.0029 60.6457C60.95 59.7565 60.3154 59.1251 59.4195 59.0755C58.441 59.0193 57.6411 59.5251 57.5188 60.2755C57.3502 61.3003 57.7502 61.925 58.7749 62.2159C58.9038 62.2523 59.0559 62.2391 59.1055 62.4011C59.165 62.5994 59.0361 62.7085 58.8939 62.7944C58.5038 63.0357 58.1105 63.2704 57.6014 63.5779C59.522 64.1035 61.1219 62.6391 61.0029 60.6424V60.6457ZM59.7997 60.8441C59.7732 61.0623 59.9121 61.5647 59.3865 61.5284C58.8278 61.492 58.6956 60.9763 58.6857 60.5003C58.679 60.1532 58.7419 59.664 59.1617 59.6937C59.7071 59.7334 59.836 60.2325 59.7997 60.8441Z" fill="#BCAA7A"/>
<path id="Vector_25" d="M42.1672 63.046C42.1705 61.8923 42.1672 60.742 42.1672 59.5883C42.1672 59.2048 42.035 58.9503 41.6052 58.9404C41.1854 58.9304 41.0102 59.1486 41.0135 59.5519C41.0135 59.8263 41.0168 60.1007 40.9937 60.375C40.9771 60.5833 41.1061 60.8775 40.8747 60.9767C40.5904 61.099 40.4615 60.7783 40.3028 60.613C39.8499 60.1403 39.4532 59.6081 38.9706 59.1651C38.4582 58.6924 37.7442 58.8809 37.7277 59.4726C37.6847 60.7618 37.7111 62.051 37.7144 63.3402C37.7144 63.7105 37.9194 63.8857 38.2863 63.889C38.6499 63.8923 38.8582 63.727 38.8648 63.3534C38.8714 62.97 38.8648 62.5832 38.878 62.1998C38.888 61.9948 38.7855 61.7204 39.0632 61.6279C39.3012 61.5485 39.3574 61.8196 39.4929 61.9419C39.8962 62.3088 40.197 62.7849 40.6796 63.0658C40.673 63.2444 40.7689 63.3733 40.878 63.5022C41.1259 63.7898 41.4135 63.9848 41.8102 63.8658C42.2399 63.7369 42.1672 63.3634 42.1672 63.046Z" fill="#BCA97A"/>
<path id="Vector_26" d="M46.2695 25.3283C45.7273 25.3052 45.8695 26.1283 45.3406 25.8176C44.8976 25.5597 44.5968 25.1696 44.5836 24.6209C44.5671 23.9102 44.9075 23.4276 45.5257 23.1102C47.3802 22.1582 49.2314 21.1995 51.0858 20.2442C51.9883 19.7781 52.3321 19.107 52.0247 18.3269C51.8197 17.8046 51.4429 17.4509 50.8545 17.4311C50.114 17.4046 49.3702 17.4178 48.6297 17.4013C48.2661 17.3947 48.1537 17.5831 48.157 17.9137C48.1669 18.5715 48.1636 19.2326 48.1636 19.8938C48.1636 20.5252 47.1719 21.4904 46.5604 21.4441C46.1703 21.4144 46.286 21.0871 46.2827 20.8723C46.2695 19.8012 46.2695 18.7302 46.2827 17.6558C46.2893 17.1269 46.2331 16.6013 46.0182 16.1286C45.8199 15.6857 45.8926 15.5303 46.3687 15.5303C47.9355 15.5369 49.5024 15.4906 51.066 15.5534C52.5238 15.6162 53.6411 16.6741 53.9717 18.1583C54.2593 19.4442 53.6114 20.9119 52.4478 21.6094C51.4792 22.1912 51.466 22.1978 51.9519 23.216C52.5437 24.4523 53.1519 25.682 53.7701 26.9084C54.0081 27.3778 54.3486 27.7745 54.7618 28.1051C54.8642 28.1877 54.9998 28.2704 54.9436 28.4356C54.8874 28.5976 54.7254 28.5679 54.5965 28.5943C54.5171 28.6109 54.4312 28.6042 54.3519 28.6142C52.3982 28.8323 52.4147 28.8257 51.6379 27.0473C51.1685 25.9663 50.6462 24.9052 50.1437 23.8375C49.9983 23.5267 49.8859 23.0243 49.4396 23.2424C48.9702 23.4738 48.1636 23.4738 48.1901 24.2407C48.2364 25.5994 47.9091 26.9944 48.5107 28.3067C48.7025 28.7199 48.4843 28.7827 48.1504 28.7827C47.519 28.7827 46.8876 28.7761 46.2529 28.7794C45.7968 28.7794 45.7637 28.6175 45.9587 28.2307C46.4215 27.3084 46.2695 26.3233 46.2695 25.3283Z" fill="#303031"/>
<path id="Vector_27" d="M21.1893 53.0162C20.6968 52.4113 20.3959 51.7039 20.1315 50.9799C19.3348 48.7883 18.5646 46.59 17.7646 44.3983C17.563 43.8397 17.4274 43.2909 17.6423 42.719C17.7845 42.3389 17.639 42.21 17.282 42.21C16.2936 42.21 15.3052 42.21 14.3168 42.21C13.9598 42.21 13.7813 42.319 13.9565 42.6959C14.1945 43.2116 14.0821 43.7107 13.9069 44.2165C13.6524 44.9404 13.4375 45.6809 13.1565 46.3916C12.2706 48.6263 11.8673 51.0593 10.4359 53.0691C10.1913 53.4129 10.393 53.5154 10.6905 53.5253C11.2954 53.5418 11.9004 53.5121 12.502 53.5451C13.0573 53.5749 13.2557 53.4426 13.2127 52.808C13.1235 51.4857 13.5168 51.1254 14.8325 51.1022C15.1333 51.0956 15.4374 51.1022 15.7382 51.1022C15.7382 51.1121 15.7382 51.1221 15.7382 51.132C16.0953 51.132 16.4523 51.132 16.8093 51.132C17.9068 51.1221 18.0721 51.2609 18.2109 52.3386C18.2373 52.5534 18.2638 52.7815 18.2241 52.9931C18.1481 53.3931 18.2902 53.5617 18.6869 53.5583C19.4274 53.555 20.1679 53.565 20.9116 53.555C21.2984 53.5484 21.5298 53.4294 21.1926 53.0195L21.1893 53.0162Z" fill="#2F2F2F"/>
<path id="Vector_28" d="M52.8909 45.8993C52.9107 46.8777 53.3834 47.7339 53.6347 48.6496C53.7834 49.1917 53.7305 49.4066 53.1223 49.4033C50.6893 49.3768 51.1455 49.638 51.757 47.5918C51.9223 47.043 52.1537 46.5108 52.2892 45.9555C52.4578 45.2513 52.6661 45.6216 52.8909 45.8993Z" fill="#F8F8F8"/>
<path id="Vector_29" d="M49.4133 5.81451C49.3935 5.02115 48.9439 4.53522 48.1969 4.36663C47.8398 4.28729 47.4068 4.2939 47.3671 3.86417C47.3275 3.44104 47.7704 3.29228 48.0944 3.19311C48.7026 3.00469 48.62 2.64768 48.3886 2.24438C47.9456 1.47086 47.2911 1.45433 46.2928 2.17166C46.0614 2.54851 45.6713 2.6609 45.4036 2.37C45.1325 2.07579 45.5655 1.86093 45.7407 1.64275C45.8796 1.47416 46.0614 1.33863 46.1903 1.16343C46.6167 0.588241 46.4944 0.337009 45.8035 0.171725C45.0234 -0.0133924 44.24 0.181642 43.4565 0.0527211C41.8995 -0.201816 40.3955 0.505599 38.8286 0.396511C38.4716 0.370066 38.0914 0.608075 38.0451 1.0874C37.9625 1.97662 38.1145 2.80304 38.6335 3.56665C39.136 2.98486 40.1806 2.76668 40.7095 3.12039C41.1855 3.44104 41.3244 3.89722 41.0996 4.41621C40.7988 5.10379 39.8996 5.30875 38.9608 4.95173C38.8352 5.21949 38.6864 5.48064 38.5873 5.75832C38.379 6.3335 38.5773 6.55499 39.2087 6.46904C39.5261 6.26409 39.8897 6.22772 40.2434 6.28061C41.9194 6.53185 43.202 5.96988 44.0582 4.48563C44.1342 4.3534 44.2003 4.14845 44.4152 4.23771C44.5804 4.30713 44.6201 4.48563 44.6234 4.65753C44.6499 5.54675 44.197 6.16822 43.483 6.6211C42.5772 7.19629 41.612 7.65247 40.6401 8.10535C39.5624 8.60781 38.5674 9.22597 37.9228 10.2805C37.8203 10.4458 37.6617 10.611 37.8005 10.7962C37.9559 11.0011 38.1245 10.8424 38.303 10.7598C39.1988 10.3466 40.1112 10.0193 41.1095 9.89372C42.2797 9.74827 43.4466 9.61604 44.6267 9.58298C44.9639 9.57307 45.4135 9.61604 45.1259 8.98466C44.8218 8.3136 44.9804 8.12518 45.744 8.10865C46.6729 8.08551 47.387 8.65739 48.1836 8.99788C48.4613 9.11688 48.7654 9.52018 49.0332 9.12019C49.2315 8.82598 49.0861 8.45575 48.8877 8.12187C48.5043 7.48388 47.896 7.2029 47.258 6.93844C47.0233 6.83927 46.7853 6.70044 46.8415 6.40292C46.8878 6.16161 47.1423 6.0955 47.3506 6.03269C47.8101 5.89385 48.2101 6.04591 48.577 6.3302C48.772 6.47895 48.9935 6.67729 49.2415 6.55499C49.5588 6.39962 49.4167 6.06574 49.41 5.81121L49.4133 5.81451ZM42.1045 1.57003C41.8731 1.57664 41.5723 1.39152 41.5888 1.15682C41.6186 0.736996 42.0186 0.875834 42.283 0.832861C42.5078 0.872529 42.8946 0.766747 42.8549 1.0874C42.8152 1.41135 42.4218 1.56011 42.1045 1.57003Z" fill="#C0A96A"/>
<path id="Vector_30" d="M61.8294 10.0494C61.0195 9.07427 59.9088 8.53545 58.8245 7.95034C57.727 7.65614 56.7948 7.0512 55.8957 6.39337C55.6874 6.24131 55.5288 5.97355 55.4329 5.72562C55.2709 5.31241 55.2974 4.96532 55.899 4.96532C56.3056 4.96532 56.7717 5.11407 57.1089 4.87937C57.5651 4.56533 57.8494 4.69095 58.1601 5.04465C58.1799 5.61985 59.3369 6.1157 60.8245 4.79343C59.5022 5.45457 59.0163 4.75375 58.9237 4.4893C58.7188 3.9042 58.732 3.35215 59.3039 2.95216C59.8923 2.53895 60.5203 2.51251 61.036 3.00505C61.5881 3.53065 61.7467 3.05464 61.9021 2.71415C62.1732 2.12244 61.7434 1.2266 61.1187 1.04148C59.4096 0.539017 57.7204 -0.0394765 55.8825 0.178698C54.98 0.287785 54.1305 0.499349 53.3404 0.948921C53.0594 1.10759 52.6826 1.25635 52.7652 1.65634C52.8776 2.20177 53.2908 1.82823 53.5718 1.84145C53.7966 1.85137 54.0478 1.84145 54.1272 2.08938C54.2164 2.37036 53.9553 2.44309 53.7702 2.55548C53.4065 2.77696 53.0132 2.83977 52.59 2.83977C51.7306 2.83977 51.2909 3.27942 51.0397 4.10915C50.8479 4.74384 51.1058 4.76367 51.5785 4.65458C51.8033 4.65458 52.0049 4.59178 52.1867 4.44633C52.3719 4.29757 52.6495 4.22815 52.7751 4.4298C52.9206 4.6645 52.6363 4.80003 52.4743 4.93557C51.9884 5.33555 51.4694 5.69918 51.0198 6.13553C50.7124 6.43634 50.3885 6.89583 50.7289 7.2859C51.0463 7.64622 51.5256 7.49085 51.919 7.21318C52.3454 6.91567 52.7818 6.63468 53.228 6.36692C53.4198 6.25453 53.671 6.19172 53.8098 6.43304C53.9387 6.65782 53.704 6.75369 53.5718 6.88591C53.1024 7.35863 52.5173 7.65283 51.9553 7.99332C51.5157 8.26108 50.7223 8.57512 51.0331 9.11725C51.314 9.60649 52.1206 9.40153 52.6958 9.17344C52.7685 9.14369 52.8247 9.05113 52.8975 9.03791C53.4396 8.92552 53.7007 8.38008 54.1966 8.20157C54.4908 8.09579 54.7916 8.01976 55.0461 8.25777C55.2544 8.4528 55.2478 8.71395 55.0858 8.93213C54.7982 9.31889 55.1056 9.4379 55.3635 9.49079C55.7337 9.56682 56.1238 9.58335 56.5039 9.58665C58.2328 9.60318 59.922 9.84119 61.5253 10.5222C61.6806 10.5883 61.8691 10.6478 61.9881 10.5155C62.1798 10.3007 61.9319 10.1784 61.8228 10.0461L61.8294 10.0494ZM58.127 0.866279C58.3915 0.853056 58.7617 0.720829 58.8245 1.17701C58.7915 1.46791 58.6626 1.68278 58.3617 1.64311C58.0312 1.59683 57.6609 1.43816 57.6014 1.1109C57.5254 0.700995 57.9353 0.876196 58.127 0.866279Z" fill="#C2AD70"/>
<path id="Vector_31" d="M15.768 45.5986C16.1349 46.6399 16.4589 47.582 16.8026 48.5142C17.0109 49.0762 16.9679 49.3638 16.244 49.3671C14.3895 49.3737 14.3961 49.4035 15.0506 47.5986C15.282 46.9573 15.3316 46.2432 15.768 45.5986Z" fill="#F8F8F8"/>
</g>
<defs>
<clipPath id="clip0_228_194">
<rect width="100" height="63.9219" fill="white"/>
</clipPath>
</defs>
</svg>
