<svg width="32" height="39" viewBox="0 0 32 39" fill="none" xmlns="http://www.w3.org/2000/svg">
<g id="bi:geo-alt-fill">
<path id="Vector" d="M16.5 35.5176C16.4443 35.4631 16.3823 35.4022 16.3145 35.3351C15.9761 35.0005 15.4918 34.5116 14.9101 33.8968C13.7461 32.6667 12.1952 30.9356 10.6456 28.9303C9.09487 26.9235 7.55297 24.6517 6.4006 22.3402C5.24545 20.0231 4.5 17.702 4.5 15.5869C4.5 12.4391 5.76305 9.41918 8.01294 7.19179C10.263 4.96423 13.3158 3.71191 16.5 3.71191C19.6842 3.71191 22.737 4.96423 24.9871 7.19179C27.2369 9.41918 28.5 12.4391 28.5 15.5869C28.5 17.702 27.7545 20.0231 26.5994 22.3402C25.447 24.6517 23.9051 26.9235 22.3544 28.9303C20.8048 30.9356 19.2539 32.6667 18.0899 33.8968C17.5082 34.5116 17.0239 35.0005 16.6855 35.3351C16.6177 35.4022 16.5557 35.4631 16.5 35.5176ZM11.7288 20.3175C12.9951 21.571 14.7114 22.2744 16.5 22.2744C18.2886 22.2744 20.0049 21.571 21.2712 20.3175C22.5376 19.0637 23.25 17.3622 23.25 15.5869C23.25 13.8116 22.5376 12.1101 21.2712 10.8564C20.0049 9.60278 18.2886 8.89941 16.5 8.89941C14.7114 8.89941 12.9951 9.60278 11.7288 10.8564C10.4624 12.1101 9.75 13.8116 9.75 15.5869C9.75 17.3622 10.4624 19.0637 11.7288 20.3175Z" fill="#D8D4C9" stroke="#C1BEB4"/>
</g>
</svg>
