<svg width="400" height="401" viewBox="0 0 400 401" fill="none" xmlns="http://www.w3.org/2000/svg">
<path d="M198.981 378.849C179.961 378.849 162.89 371.184 153.321 358.345C141.256 342.162 142.443 322.949 143.59 304.369C143.726 302.117 143.866 299.869 143.981 297.628C145.164 274.839 145.838 250.455 142.819 226.546C141.069 212.696 138.807 197.089 136.62 181.994C132.702 154.956 129.001 129.417 129.001 119.048C129.001 103.681 135.562 78.9339 136.125 76.8399C136.029 74.5929 135.111 51.5529 137.506 43.9199L137.735 43.1809C140.209 35.2699 144.813 20.5439 158.882 20.5439C170.309 20.5439 174.536 27.4069 175.799 30.2629C177.692 29.0759 182.302 27.0059 191.409 27.0059C202.685 27.0059 206.504 39.1019 207.293 42.1919C210.939 42.4469 226.905 44.5819 227.511 62.3009C234.933 61.8769 243.95 73.6459 244.438 83.8789C246.718 84.1619 248.888 85.5389 250.764 87.9019C254.952 93.1719 256.923 102.247 255.352 109.006C254.234 115.141 255.489 118.321 257.078 122.351C258.584 126.165 260.455 130.917 260.632 139.511C260.776 146.52 258.594 157.205 256.483 167.534C255.353 173.085 254.282 178.326 253.55 183.02L252.432 190.169C247.394 222.341 242.188 255.61 239.438 288.704C238.979 294.236 238.778 300.033 238.57 306.172C237.908 325.63 237.218 345.752 228.198 361.718C222.488 371.804 210.477 378.849 198.981 378.849ZM158.882 22.3799C146.164 22.3799 141.984 35.7429 139.488 43.7279L139.255 44.4699C136.884 52.0219 137.953 76.6559 137.964 76.9039L137.971 77.0479L137.931 77.1879C137.859 77.4459 130.835 103.318 130.835 119.048C130.835 129.284 134.528 154.759 138.436 181.729C140.623 196.834 142.885 212.453 144.639 226.318C147.676 250.369 146.998 274.85 145.815 297.721C145.697 299.97 145.557 302.225 145.421 304.48C144.295 322.73 143.129 341.604 154.789 357.248C164.015 369.624 180.533 377.015 198.979 377.015C209.843 377.015 221.198 370.353 226.595 360.816C235.393 345.244 236.074 325.349 236.73 306.109C236.942 299.95 237.139 294.13 237.606 288.554C240.359 255.393 245.572 222.091 250.613 189.887L251.732 182.741C252.471 178.001 253.546 172.741 254.682 167.169C256.77 156.936 258.931 146.356 258.792 139.547C258.623 131.282 256.895 126.894 255.367 123.022C253.735 118.891 252.33 115.328 253.553 108.634C254.994 102.427 253.133 92.6159 249.323 87.8189C248.1 86.2749 246.098 85.2119 243.542 85.2119H243V84.7389C243 74.4109 232.488 62.9059 226.66 64.2419L225 64.5039V63.3479C225 44.2139 207.34 43.2119 206.558 43.2119H205.802L205.658 42.8589C205.63 42.7129 202.747 28.6469 191.409 28.6469C179.807 28.6469 176.049 32.2379 176.01 32.2739L174.892 33.4039L174.479 31.9279C174.375 31.5379 171.776 22.3799 158.882 22.3799Z" fill="black"/>
<path d="M283.107 20.5449H117.875V22.3809H283.107V20.5449Z" fill="black"/>
<path d="M283.107 377.014H117.875V378.849H283.107V377.014Z" fill="black"/>
<path d="M184.88 259.633C184.418 259.633 184.02 259.286 183.97 258.816L183.371 253.341C183.313 252.835 183.679 252.384 184.182 252.33C184.723 252.208 185.139 252.638 185.193 253.14L185.791 258.616C185.849 259.121 185.483 259.573 184.981 259.627C184.944 259.633 184.913 259.633 184.88 259.633Z" fill="#FAAF3B"/>
<path d="M196.565 366.269C196.103 366.269 195.704 365.92 195.654 365.451L194.488 354.788C194.431 354.282 194.797 353.831 195.299 353.777C195.855 353.669 196.257 354.085 196.311 354.587L197.476 365.25C197.534 365.757 197.168 366.208 196.666 366.262C196.629 366.269 196.598 366.269 196.565 366.269ZM194.619 348.495C194.156 348.495 193.758 348.147 193.708 347.678L192.539 337.015C192.482 336.508 192.847 336.057 193.349 336.003C193.901 335.885 194.306 336.311 194.36 336.814L195.529 347.477C195.586 347.983 195.221 348.434 194.718 348.488C194.683 348.495 194.65 348.495 194.619 348.495ZM192.672 330.722C192.209 330.722 191.811 330.374 191.76 329.905L190.592 319.241C190.534 318.736 190.9 318.284 191.403 318.23C191.951 318.126 192.36 318.539 192.414 319.041L193.583 329.704C193.64 330.21 193.274 330.662 192.772 330.716C192.736 330.722 192.704 330.722 192.672 330.722ZM190.724 312.952C190.262 312.952 189.864 312.604 189.813 312.135L188.644 301.472C188.587 300.966 188.953 300.515 189.455 300.461C190 300.342 190.413 300.769 190.467 301.272L191.636 311.934C191.693 312.44 191.327 312.891 190.826 312.945C190.79 312.952 190.757 312.952 190.724 312.952ZM188.777 295.179C188.315 295.179 187.917 294.831 187.867 294.362L186.698 283.699C186.641 283.194 187.006 282.741 187.509 282.688C188.047 282.584 188.467 282.997 188.52 283.499L189.689 294.162C189.747 294.667 189.381 295.119 188.879 295.173C188.842 295.179 188.81 295.179 188.777 295.179ZM186.831 277.406C186.369 277.406 185.97 277.057 185.92 276.589L184.751 265.926C184.694 265.42 185.059 264.969 185.561 264.914C186.095 264.8 186.518 265.223 186.572 265.724L187.741 276.388C187.798 276.894 187.433 277.345 186.93 277.399C186.896 277.406 186.863 277.406 186.831 277.406Z" fill="#FAAF3B"/>
<path d="M197.945 378.849C197.483 378.849 197.085 378.501 197.034 378.032L196.436 372.557C196.378 372.051 196.744 371.6 197.246 371.546C197.777 371.428 198.203 371.854 198.257 372.357L198.856 377.832C198.913 378.337 198.547 378.789 198.045 378.843C198.011 378.849 197.978 378.849 197.945 378.849Z" fill="#FAAF3B"/>
<path d="M159.481 27.8559C159.019 27.8559 158.621 27.5079 158.57 27.0389L157.972 21.5639C157.914 21.0599 158.28 20.6059 158.782 20.5509C159.324 20.4829 159.739 20.8589 159.793 21.3629L160.391 26.8379C160.449 27.3409 160.083 27.7959 159.581 27.8509C159.545 27.8539 159.514 27.8559 159.481 27.8559Z" fill="#FAAF3B"/>
<path d="M176.985 187.591C176.523 187.591 176.125 187.243 176.074 186.774L174.905 176.125C174.848 175.62 175.214 175.167 175.715 175.114C176.253 174.996 176.673 175.423 176.727 175.924L177.896 186.573C177.953 187.078 177.587 187.531 177.085 187.584C177.05 187.591 177.018 187.591 176.985 187.591ZM175.038 169.843C174.576 169.843 174.178 169.495 174.127 169.026L172.962 158.378C172.904 157.872 173.27 157.42 173.772 157.366C174.302 157.237 174.729 157.675 174.783 158.177L175.948 168.825C176.006 169.331 175.64 169.783 175.137 169.836C175.103 169.843 175.071 169.843 175.038 169.843ZM173.095 152.095C172.633 152.095 172.235 151.747 172.184 151.278L171.015 140.629C170.958 140.124 171.324 139.671 171.825 139.618C172.378 139.507 172.783 139.922 172.837 140.429L174.005 151.077C174.063 151.582 173.697 152.035 173.194 152.088C173.159 152.095 173.127 152.095 173.095 152.095ZM171.148 134.347C170.686 134.347 170.287 133.999 170.237 133.529L169.071 122.881C169.014 122.375 169.38 121.923 169.881 121.87C170.426 121.748 170.839 122.179 170.893 122.68L172.058 133.329C172.116 133.834 171.75 134.286 171.247 134.34C171.212 134.347 171.181 134.347 171.148 134.347ZM169.205 116.599C168.743 116.599 168.345 116.251 168.294 115.782L167.129 105.133C167.071 104.628 167.437 104.176 167.94 104.122C168.477 103.993 168.897 104.43 168.951 104.933L170.116 115.581C170.174 116.087 169.808 116.539 169.305 116.592C169.269 116.599 169.237 116.599 169.205 116.599ZM167.261 98.8469C166.799 98.8469 166.401 98.4989 166.35 98.0299L165.181 87.3809C165.124 86.8759 165.49 86.4239 165.991 86.3699C166.522 86.2629 166.949 86.6789 167.003 87.1809L168.172 97.8299C168.229 98.3349 167.862 98.7879 167.361 98.8409C167.327 98.8469 167.294 98.8469 167.261 98.8469ZM165.314 81.0999C164.852 81.0999 164.454 80.7519 164.403 80.2819L163.238 69.6349C163.18 69.1319 163.546 68.6779 164.048 68.6219C164.6 68.5589 165.005 68.9309 165.059 69.4349L166.224 80.0819C166.282 80.5869 165.916 81.0389 165.413 81.0929C165.379 81.0999 165.347 81.0999 165.314 81.0999ZM163.371 63.3519C162.909 63.3519 162.511 63.0039 162.46 62.5349L161.291 51.8859C161.234 51.3819 161.6 50.9289 162.101 50.8729C162.646 50.8009 163.059 51.1839 163.113 51.6859L164.281 62.3339C164.339 62.8379 163.973 63.2919 163.471 63.3469C163.435 63.3499 163.404 63.3519 163.371 63.3519ZM161.424 45.6039C160.962 45.6039 160.563 45.2559 160.513 44.7869L159.347 34.1379C159.29 33.6349 159.657 33.1799 160.158 33.1249C160.696 33.0709 161.116 33.4329 161.17 33.9369L162.335 44.5859C162.393 45.0899 162.027 45.5429 161.524 45.5989C161.489 45.6019 161.457 45.6039 161.424 45.6039Z" fill="#FAAF3B"/>
<path d="M178.362 200.165C177.9 200.165 177.502 199.817 177.451 199.348L176.853 193.872C176.795 193.367 177.161 192.915 177.663 192.861C178.207 192.75 178.62 193.169 178.674 193.672L179.273 199.147C179.331 199.652 178.965 200.105 178.462 200.158C178.426 200.165 178.395 200.165 178.362 200.165Z" fill="#FAAF3B"/>
<path d="M253.864 139.818C253.814 139.818 253.76 139.814 253.707 139.803L242.86 137.892C242.358 137.806 242.025 137.329 242.114 136.83C242.201 136.331 242.66 135.97 243.176 136.084L254.023 137.995C254.524 138.081 254.858 138.558 254.769 139.056C254.689 139.506 254.302 139.818 253.864 139.818ZM235.786 136.634C235.736 136.634 235.682 136.631 235.629 136.62L224.779 134.712C224.277 134.626 223.943 134.149 224.033 133.651C224.123 133.149 224.564 132.801 225.095 132.905L235.945 134.812C236.446 134.898 236.78 135.375 236.691 135.873C236.611 136.323 236.224 136.634 235.786 136.634Z" fill="#FAAF3B"/>
<path d="M189.352 128.46C189.301 128.46 189.248 128.457 189.194 128.446L184.003 127.532C183.501 127.446 183.167 126.969 183.257 126.47C183.342 125.971 183.798 125.61 184.319 125.724L189.51 126.639C190.012 126.725 190.345 127.202 190.256 127.7C190.176 128.148 189.789 128.46 189.352 128.46ZM176.928 126.273C176.877 126.273 176.824 126.269 176.77 126.259L165.92 124.351C165.419 124.265 165.086 123.788 165.175 123.29C165.26 122.788 165.701 122.44 166.235 122.544L177.086 124.452C177.587 124.538 177.921 125.015 177.831 125.513C177.753 125.961 177.366 126.273 176.928 126.273ZM158.847 123.092C158.796 123.092 158.743 123.089 158.689 123.078L147.843 121.17C147.341 121.084 147.008 120.607 147.097 120.108C147.183 119.609 147.627 119.252 148.158 119.363L159.004 121.27C159.506 121.356 159.839 121.833 159.75 122.332C159.671 122.78 159.284 123.092 158.847 123.092ZM140.769 119.912C140.719 119.912 140.665 119.909 140.611 119.898L129.761 117.99C129.259 117.904 128.926 117.427 129.015 116.929C129.104 116.427 129.549 116.083 130.077 116.183L140.926 118.091C141.428 118.177 141.761 118.654 141.672 119.152C141.593 119.6 141.206 119.912 140.769 119.912Z" fill="#FAAF3B"/>
<path d="M183.328 235.865C181.969 237.149 180.28 238.174 178.115 238.174C174.959 238.174 172.615 236.156 172.615 232.818C172.615 230.505 173.787 228.927 175.548 228.121C176.723 227.534 178.115 227.351 179.879 227.279L183.18 227.168V226.067C183.18 223.423 181.603 222.252 179.438 222.252C177.348 222.252 175.877 222.947 174.666 223.683L173.641 221.776C175.66 220.489 177.821 220.011 179.732 220.011C183.329 220.011 185.896 221.776 185.896 225.921V231.9C185.896 235.314 186.007 236.927 186.226 237.809H183.842L183.328 235.865ZM180.136 229.332C178.631 229.368 177.641 229.587 176.866 229.992C175.876 230.544 175.364 231.534 175.364 232.67C175.364 234.578 176.612 235.9 178.594 235.9C180.76 235.9 182.373 234.469 183.179 233.624V229.222L180.136 229.332Z" fill="black"/>
<path d="M198.981 141.333V116.048H201.658V125.037C202.796 124.599 203.935 124.23 205.586 124.23C209.916 124.23 213.366 127.203 213.366 132.853C213.366 138.909 209.328 142.394 203.822 142.394C201.658 142.394 199.971 141.881 198.981 141.333ZM210.576 132.965C210.576 129.186 208.74 126.543 205.22 126.543C203.348 126.543 202.283 127.203 201.658 127.461V139.608C202.573 139.938 203.455 140.085 204.191 140.085C207.969 140.085 210.576 137.332 210.576 132.965Z" fill="black"/>
<path d="M264.982 138.567C264.982 135.394 262.408 132.816 259.235 132.816C256.061 132.816 253.487 135.394 253.487 138.567C253.487 141.74 256.061 144.318 259.235 144.318C262.408 144.318 264.982 141.74 264.982 138.567Z" fill="#FAAF3B"/>
<path d="M136.48 116.538C136.48 113.365 133.905 110.787 130.733 110.787C127.56 110.787 124.985 113.365 124.985 116.538C124.985 119.711 127.56 122.289 130.733 122.289C133.906 122.289 136.48 119.712 136.48 116.538Z" fill="#FAAF3B"/>
</svg>
