<svg width="400" height="401" viewBox="0 0 400 401" fill="none" xmlns="http://www.w3.org/2000/svg">
<path d="M34.507 208.065C22.006 205.367 17.923 192.068 17.923 187.79C17.923 183.338 22.146 173.513 22.326 173.097C22.436 172.867 31.9 153.121 31.9 134.827C31.9 116.644 22.478 104.729 22.381 104.611L23.636 103.598C24.039 104.099 33.512 116.049 33.512 134.827C33.512 153.497 23.888 173.568 23.792 173.768C23.764 173.835 19.536 183.669 19.536 187.79C19.536 191.736 23.306 203.997 34.848 206.491L34.507 208.065Z" fill="black"/>
<path d="M52.002 221.714C48.914 221.714 45.492 220.391 41.798 217.768C34.046 212.291 31.196 202.661 28.68 194.166C28.323 192.953 27.968 191.756 27.604 190.588L29.144 190.109C29.509 191.285 29.865 192.488 30.226 193.707C32.787 202.355 35.434 211.296 42.73 216.451C46.824 219.358 50.477 220.542 53.595 219.953L53.892 221.54C53.279 221.653 52.648 221.714 52.002 221.714Z" fill="black"/>
<path d="M69.749 226.198C68.688 226.053 67.62 225.952 66.553 225.851C65.465 225.75 64.378 225.647 63.295 225.501C61.141 225.192 58.052 224.522 55.531 223.073C49.406 219.552 47.431 211.462 45.842 204.959L45.466 203.428C45.08 201.882 44.761 200.322 44.441 198.758C44.232 197.734 44.022 196.711 43.792 195.692L43.627 194.982C43.433 194.182 43.233 193.354 43.192 192.493L44.801 192.414C44.836 193.124 45.01 193.844 45.193 194.604L45.366 195.341C45.596 196.367 45.807 197.401 46.019 198.433C46.334 199.975 46.649 201.515 47.03 203.037L47.408 204.577C48.923 210.778 50.807 218.497 56.333 221.675C58.632 222.998 61.509 223.615 63.515 223.904C64.572 224.046 65.638 224.147 66.703 224.248C67.793 224.349 68.881 224.452 69.966 224.598L69.749 226.198Z" fill="black"/>
<path d="M98.618 239.296C97.931 239.296 97.265 239.265 96.665 239.236L95.819 239.202C95.466 239.189 87.072 238.843 75.092 231.738C62.956 224.535 58.606 196.264 58.428 195.064L60.021 194.825C60.065 195.112 64.437 223.54 75.914 230.352C87.503 237.223 95.789 237.585 95.871 237.588L96.742 237.626C99.821 237.768 102.631 237.739 103.311 235.759C103.725 234.553 103.708 233.526 103.259 232.622C102.161 230.404 98.636 229.239 96.302 228.468C89.043 226.077 81.008 216.784 81.087 207.271V135.216C81.076 135.067 80.833 130.388 83.609 127.444C85.04 125.924 86.993 125.154 89.413 125.154C91.838 125.154 93.734 125.927 95.048 127.45C97.607 130.42 96.938 135.136 96.908 135.334L96.917 226.972C99.506 227.828 103.326 229.126 104.704 231.904C105.345 233.199 105.389 234.673 104.835 236.282C103.948 238.868 101.141 239.296 98.618 239.296ZM89.415 126.768C87.46 126.768 85.903 127.366 84.789 128.546C82.492 130.977 82.698 135.129 82.699 135.171L82.701 207.278C82.635 215.215 89.026 223.412 95.307 226.341V135.218C95.321 135.059 95.901 130.904 93.824 128.501C92.83 127.35 91.347 126.768 89.415 126.768Z" fill="black"/>
<path d="M96.607 214.093L95.618 212.821C97.437 211.41 99.169 209.703 100.845 208.052L101.566 207.344C104.856 204.113 107.964 201.059 109.05 196.528C110.657 189.817 109.355 182.794 107.71 176.204C106.192 170.126 104.466 164.917 102.435 160.278C100.978 156.954 99.451 154.143 97.766 151.682C97.015 150.586 96.276 149.624 95.505 148.741L96.721 147.679C97.534 148.611 98.311 149.624 99.097 150.772C100.839 153.315 102.415 156.214 103.912 159.632C105.981 164.353 107.735 169.647 109.275 175.813C110.969 182.601 112.306 189.854 110.618 196.902C109.423 201.886 106.155 205.095 102.694 208.493L101.974 209.201C100.267 210.884 98.501 212.625 96.607 214.093Z" fill="black"/>
<path d="M89.088 263.064L82.132 235.035L83.697 234.645L90.105 260.475L90.967 259.914L93.872 238.175L95.469 238.389L92.466 260.859L89.088 263.064Z" fill="black"/>
<path d="M93.014 249.85H86.838V251.462H93.014V249.85Z" fill="black"/>
<path d="M174.81 260.626H90.428V262.238H174.81V260.626Z" fill="#FAAF3B"/>
<path d="M157.168 261.433H155.556C155.556 232.84 136.438 207.17 109.066 199.011L109.525 197.465C137.576 205.825 157.168 232.132 157.168 261.433Z" fill="#FAAF3B"/>
<path d="M276.016 273.964C265.161 273.964 254.359 272.036 243.903 270.172C233.85 268.38 223.458 266.525 213.096 266.405C209.267 266.342 205.236 266.837 201.391 267.293L200.417 267.41C195.24 268.03 189.919 268.925 184.773 269.791C169.792 272.31 154.301 274.908 139.178 271.435C133.678 270.172 128.011 271.252 122.539 272.298C116.379 273.476 110.011 274.688 103.632 272.716C99.521 271.447 95.808 268.185 93.444 263.77C91.2 259.578 93.971 255.453 97.713 253.223C101.834 250.769 105.817 249.277 109.894 248.662C111.922 248.363 113.996 247.957 116.004 247.563C118.073 247.157 120.213 246.734 122.255 246.448C125.975 245.922 129.547 244.417 133.004 242.965L134.412 242.376C138.886 240.512 143.151 238.251 147.088 235.647C150.568 233.335 154.9 230.457 159.136 229.089C161.666 228.276 164.209 227.276 166.669 226.306C167.897 225.821 169.124 225.335 170.355 224.872C170.571 224.75 201.863 207.917 213.507 200.147C224.86 192.584 226.715 172.314 226.734 172.11C227.187 141.712 225.327 111.633 223.446 86.2239L225.052 86.1039C226.935 111.547 228.8 141.673 228.343 172.19C228.268 173.109 226.406 193.493 214.402 201.488C202.696 209.298 171.337 226.169 171.02 226.339C169.701 226.843 168.482 227.321 167.26 227.804C164.777 228.783 162.21 229.794 159.631 230.625C155.608 231.923 151.379 234.731 147.979 236.99C143.956 239.651 139.601 241.963 135.033 243.861L133.632 244.45C130.081 245.943 126.409 247.486 122.485 248.041C120.484 248.324 118.46 248.724 116.317 249.143C114.292 249.54 112.198 249.953 110.133 250.255C106.272 250.837 102.479 252.261 98.541 254.608C95.685 256.311 93.007 259.53 94.867 263.006C97.034 267.053 100.402 270.029 104.11 271.172C110.101 273.024 115.997 271.902 122.239 270.713C127.878 269.636 133.709 268.524 139.541 269.862C154.357 273.266 169.683 270.69 184.508 268.199C189.673 267.33 195.012 266.432 200.229 265.808L201.202 265.692C205.099 265.229 209.118 264.731 213.118 264.792C223.611 264.911 234.073 266.779 244.188 268.583C254.572 270.436 265.307 272.35 276.018 272.35C276.169 272.35 276.324 272.35 276.478 272.35C283.107 272.306 288.483 271.254 292.911 269.128C299.22 266.108 303.228 259.328 303.376 251.43C303.534 243.393 300.164 235.327 296.908 227.527C294.325 221.341 291.655 214.949 290.679 208.499C288.039 191.109 287.794 173.937 289.949 157.467C291.511 145.551 293.508 127.418 295.113 112.846C297.041 95.3779 297.737 89.2109 298.002 88.5809L299.488 89.2049C299.252 90.0319 298.02 101.199 296.717 113.023C295.111 127.601 293.111 145.746 291.549 157.675C289.413 173.997 289.656 191.016 292.274 208.26C293.218 214.511 295.851 220.814 298.396 226.904C301.718 234.859 305.154 243.086 304.991 251.463C304.83 259.972 300.469 267.301 293.612 270.585C288.964 272.814 283.361 273.92 276.489 273.965C276.327 273.964 276.17 273.964 276.016 273.964Z" fill="black"/>
<path d="M382.676 318.255H29.153L77.813 232.33L79.217 233.124L31.918 316.643H380.112L321.551 195.058H289.866V193.446H322.565L322.785 193.902L382.676 318.255Z" fill="black"/>
<path d="M218.922 193.446H110.587V195.058H218.922V193.446Z" fill="black"/>
<path d="M265.525 238.56L264.121 237.772C273.421 221.182 262.801 210.764 262.691 210.66L263.805 209.495C263.923 209.605 275.433 220.892 265.525 238.56Z" fill="black"/>
<path d="M97.297 255.355L96.245 254.133C96.866 253.597 97.324 252.81 97.808 251.972C98.194 251.308 98.594 250.621 99.1 250.038C100.496 248.433 101.989 247.351 103.94 246.526C108.018 244.779 112.246 244.133 116.336 243.509C117.671 243.305 119.065 243.128 120.481 242.948C122.75 242.658 125.096 242.359 127.343 241.927C128.747 241.654 130.239 241.508 131.681 241.366C133.738 241.165 135.865 240.96 137.674 240.381L138.165 241.918C136.19 242.548 133.978 242.762 131.838 242.973C130.432 243.109 128.978 243.25 127.648 243.508C125.35 243.952 122.978 244.254 120.683 244.547C119.282 244.724 117.902 244.9 116.579 245.102C112.589 245.709 108.463 246.339 104.571 248.008C102.853 248.733 101.543 249.684 100.317 251.092C99.912 251.561 99.567 252.153 99.204 252.78C98.673 253.698 98.124 254.643 97.297 255.355Z" fill="black"/>
<path d="M108.036 246.634L106.77 245.639C108.973 242.842 114.245 240.185 118.313 239C120.457 238.377 122.746 238.319 124.96 238.263C126.441 238.226 127.841 238.191 129.185 237.999C132.463 237.532 136.269 236.978 139.99 236.288C141.431 236.015 142.87 235.545 144.263 235.089C145.668 234.629 147.119 234.153 148.6 233.87L148.905 235.451C147.524 235.719 146.184 236.156 144.764 236.619C143.323 237.092 141.833 237.58 140.287 237.873C136.531 238.568 132.705 239.126 129.412 239.592C127.976 239.8 126.462 239.838 124.999 239.876C122.888 239.929 120.705 239.982 118.762 240.55C115.035 241.633 110.007 244.134 108.036 246.634Z" fill="black"/>
<path d="M98.257 261.045C98.064 261.045 97.8969 261.035 97.7589 261.014C95.5029 260.667 93.6719 258.337 93.5959 258.24L94.8679 257.251C95.2849 257.783 96.6609 259.213 98.0049 259.421C99.2539 259.607 105.149 258.331 108.89 257.402L110.753 249.465L112.321 249.837L110.235 258.724L109.759 258.844C108.817 259.083 100.976 261.045 98.257 261.045Z" fill="black"/>
<path d="M103.874 250.91L101.484 248.721L100.394 249.912L102.784 252.1L103.874 250.91Z" fill="black"/>
<path d="M124.667 239.265L123.357 238.327C123.48 238.157 126.391 234.18 131.302 234.18C131.392 234.18 131.501 234.18 131.606 234.18C137.005 234.18 151.215 232.933 152.522 232.193L153.315 233.597C151.411 234.674 136.137 235.792 131.543 235.792C131.461 235.792 131.392 235.792 131.302 235.792C127.209 235.791 124.692 239.23 124.667 239.265Z" fill="black"/>
<path d="M258.843 330.978C240.454 330.978 226.053 330.497 221.385 329.162C205.145 324.516 32.29 326.803 30.547 326.828L28.793 326.853L37.076 316.933L38.314 317.965L32.28 325.193C51.631 324.948 206.065 323.102 221.828 327.612C237.222 332.006 365.797 326.761 380.086 326.157L375.664 317.827L377.088 317.072L382.706 327.66L381.431 327.717C377.233 327.895 305.326 330.978 258.843 330.978Z" fill="black"/>
<path d="M30.535 338.247H28.78L39.842 325.372L41.064 326.424L32.359 336.556C32.463 336.549 32.57 336.546 32.68 336.54C74.225 334.723 172.851 330.707 191.368 332.697C211.91 334.905 361.601 334.464 379.627 334.404L373.808 327.724L375.023 326.666L383.161 336.003L381.397 336.01C379.719 336.016 213.04 336.64 191.195 334.303C172.784 332.319 74.257 336.337 32.752 338.152C31.342 338.215 30.57 338.247 30.535 338.247Z" fill="black"/>
<path d="M305.219 273.561H220.037V271.948H303.606V63.8149H305.219V273.561Z" fill="#FAAF3B"/>
<path d="M257.511 272.754H255.899C255.899 251.043 275.515 231.567 303.604 225.396L303.951 226.97C276.607 232.979 257.511 251.805 257.511 272.754Z" fill="#FAAF3B"/>
<path d="M155.228 219.251C155.228 219.736 155.074 220.133 154.771 220.441C154.468 220.749 154.075 220.904 153.587 220.904H147.757C147.272 220.904 146.869 220.75 146.551 220.441C146.233 220.132 146.075 219.736 146.075 219.251V214.093H148.144V219.072H153.154V210.44H147.624C147.136 210.44 146.743 210.289 146.44 209.98C146.135 209.671 145.983 209.275 145.983 208.787V199.233C145.983 198.747 146.134 198.348 146.44 198.041C146.743 197.732 147.136 197.578 147.624 197.578H153.586C154.074 197.578 154.468 197.732 154.77 198.041C155.072 198.348 155.227 198.747 155.227 199.233L155.228 219.251ZM153.156 208.638V199.412H148.057V208.638H153.156Z" fill="#F8A54A"/>
<path d="M168.537 219.251C168.537 219.736 168.376 220.133 168.058 220.441C167.74 220.75 167.34 220.904 166.852 220.904H160.667C160.179 220.904 159.782 220.75 159.473 220.441C159.164 220.132 159.014 219.736 159.014 219.251V199.232C159.014 198.746 159.165 198.347 159.473 198.04C159.782 197.731 160.179 197.577 160.667 197.577H166.852C167.34 197.577 167.74 197.731 168.058 198.04C168.376 198.347 168.537 198.746 168.537 199.232V219.251ZM166.465 219.071V199.412H161.083V219.071H166.465Z" fill="#F8A54A"/>
<path d="M178.971 207.655C178.971 208.676 178.454 209.188 177.421 209.188H173.337C172.295 209.188 171.772 208.675 171.772 207.655V199.113C171.772 198.09 172.294 197.578 173.337 197.578H177.421C178.454 197.578 178.971 198.09 178.971 199.113V207.655ZM177.273 207.684V199.083H173.456V207.684H177.273Z" fill="#F8A54A"/>
<path d="M236.356 251.32C236.356 251.804 236.202 252.205 235.9 252.51C235.597 252.819 235.204 252.973 234.715 252.973H228.886C228.401 252.973 227.997 252.819 227.68 252.51C227.362 252.204 227.204 251.804 227.204 251.32V246.161H229.273V251.14H234.283V242.512H228.753C228.266 242.512 227.872 242.358 227.569 242.049C227.263 241.74 227.112 241.343 227.112 240.855V231.3C227.112 230.816 227.263 230.418 227.569 230.11C227.872 229.801 228.265 229.647 228.753 229.647H234.715C235.203 229.647 235.597 229.801 235.9 230.11C236.202 230.419 236.356 230.816 236.356 231.3V251.32ZM234.284 240.707V231.479H229.185V240.707H234.284Z" fill="#F8A54A"/>
<path d="M249.666 251.32C249.666 251.804 249.505 252.205 249.187 252.51C248.87 252.819 248.469 252.973 247.981 252.973H241.796C241.308 252.973 240.91 252.819 240.602 252.51C240.293 252.204 240.143 251.804 240.143 251.32V231.299C240.143 230.815 240.293 230.417 240.602 230.109C240.911 229.801 241.308 229.646 241.796 229.646H247.981C248.469 229.646 248.87 229.8 249.187 230.109C249.505 230.418 249.666 230.815 249.666 231.299V251.32ZM247.594 251.141V231.48H242.211V251.141H247.594Z" fill="#F8A54A"/>
<path d="M260.1 239.725C260.1 240.748 259.583 241.258 258.55 241.258H254.465C253.423 241.258 252.901 240.748 252.901 239.725V231.184C252.901 230.161 253.423 229.647 254.465 229.647H258.55C259.583 229.647 260.1 230.161 260.1 231.184V239.725ZM258.401 239.753V231.152H254.585V239.753H258.401Z" fill="#F8A54A"/>
</svg>
