<svg width="0" height="0" class="hidden">
  <symbol fill="none" xmlns="http://www.w3.org/2000/svg" viewBox="0 0 6 12" id="ic_arr_hor">
    <path d="M0 0.623773L4.86694 6.00001L0 11.3762L0.568374 12L6 6.00001L0.568374 0L0 0.623773Z" fill="currentColor"></path>
  </symbol>
  <symbol fill="none" xmlns="http://www.w3.org/2000/svg" viewBox="0 0 12 7" id="ic_arr_ver">
    <path d="M11.3762 0.960937L5.99999 5.82788L0.623773 0.960938L0 1.52931L5.99999 6.96094L12 1.52931L11.3762 0.960937Z" fill="currentColor"></path>
  </symbol>
  <symbol fill="none" xmlns="http://www.w3.org/2000/svg" viewBox="0 0 18 16" id="ic_arrow_hor">
    <path d="M1.48096 8.33301H17.1476" stroke="currentColor" stroke-miterlimit="10" stroke-linecap="round" stroke-linejoin="round"></path>
    <path d="M6.0127 14.0001L0.516108 8.47878L6.0127 2.85205" stroke="currentColor" stroke-miterlimit="10" stroke-linecap="round" stroke-linejoin="round"></path>
  </symbol>
  <symbol fill="none" xmlns="http://www.w3.org/2000/svg" viewBox="0 0 9 9" id="ic_check">
    <path d="M3.44626 7.86216C3.36035 7.94857 3.24314 7.99679 3.12138 7.99679C2.99963 7.99679 2.88242 7.94857 2.79651 7.86216L0.201944 5.26717C-0.0673148 4.99792 -0.0673148 4.5613 0.201944 4.29254L0.526822 3.96758C0.796165 3.69832 1.23228 3.69832 1.50154 3.96758L3.12138 5.58751L7.49844 1.21037C7.76779 0.941108 8.20432 0.941108 8.47316 1.21037L8.79804 1.53533C9.0673 1.80459 9.0673 2.24112 8.79804 2.50996L3.44626 7.86216Z" fill="currentColor"></path>
  </symbol>
  <symbol fill="none" xmlns="http://www.w3.org/2000/svg" viewBox="0 0 22 22" id="ic_close">
    <path d="M18.7778 3.22222C16.6991 1.14352 13.9398 0 11 0C8.06019 0 5.30093 1.14352 3.22222 3.22222C1.14352 5.30093 0 8.06019 0 11C0 13.9398 1.14352 16.6991 3.22222 18.7778C5.30093 20.8565 8.06019 22 11 22C13.9398 22 16.6991 20.8565 18.7778 18.7778C20.8565 16.6991 22 13.9398 22 11C22 8.06019 20.8565 5.30093 18.7778 3.22222ZM17.8935 17.8935C16.0509 19.7361 13.6019 20.75 11 20.75C8.39815 20.75 5.94907 19.7361 4.10648 17.8935C0.305555 14.0926 0.305555 7.90741 4.10648 4.10648C5.94907 2.26389 8.39815 1.25 11 1.25C13.6019 1.25 16.0509 2.26389 17.8935 4.10648C21.6944 7.90741 21.6944 14.0926 17.8935 17.8935Z" fill="currentColor"></path>
    <path d="M15.8472 6.15278C15.6018 5.90741 15.2083 5.90741 14.963 6.15278L11 10.1157L7.03704 6.15278C6.79167 5.90741 6.39815 5.90741 6.15278 6.15278C5.90741 6.39815 5.90741 6.79167 6.15278 7.03704L10.1157 11L6.15278 14.963C5.90741 15.2083 5.90741 15.6019 6.15278 15.8472C6.27315 15.9676 6.43518 16.0324 6.59259 16.0324C6.75 16.0324 6.91204 15.9722 7.03241 15.8472L10.9954 11.8843L14.9583 15.8472C15.0787 15.9676 15.2407 16.0324 15.3981 16.0324C15.5602 16.0324 15.7176 15.9722 15.838 15.8472C16.0833 15.6019 16.0833 15.2083 15.838 14.963L11.8843 11L15.8472 7.03704C16.0926 6.79167 16.0926 6.39815 15.8472 6.15278Z" fill="currentColor"></path>
  </symbol>
  <symbol fill="none" xmlns="http://www.w3.org/2000/svg" viewBox="0 0 12 8" id="ic_filter">
    <path d="M1 0.666504L11 0.666504" stroke="currentColor" stroke-width="1.1" stroke-linecap="round"></path>
    <path d="M2.66732 4L9.33398 4" stroke="currentColor" stroke-width="1.1" stroke-linecap="round"></path>
    <path d="M4.33268 7.33301L7.66602 7.33301" stroke="currentColor" stroke-width="1.1" stroke-linecap="round"></path>
  </symbol>
  <symbol fill="none" xmlns="http://www.w3.org/2000/svg" viewBox="0 0 20 19" id="ic_menu">
    <rect y="4.56885" width="20" height="2.5" fill="currentColor"></rect>
    <rect x="5" y="12.0688" width="15" height="2.5" fill="currentColor"></rect>
  </symbol>
  <symbol fill="none" xmlns="http://www.w3.org/2000/svg" viewBox="0 0 18 18" id="ic_phone">
    <path d="M13.6846 11.9072C13.0965 11.3267 12.3624 11.3267 11.7781 11.9072C11.3323 12.3492 10.8866 12.7912 10.4484 13.2407C10.3285 13.3643 10.2274 13.3905 10.0813 13.3081C9.79288 13.1508 9.48574 13.0234 9.20857 12.8511C7.91633 12.0383 6.83384 10.9933 5.87496 9.81719C5.39926 9.23287 4.97601 8.60735 4.6801 7.90317C4.62017 7.76083 4.63141 7.66719 4.74752 7.55108C5.19325 7.12033 5.62774 6.67835 6.06598 6.23636C6.67652 5.62208 6.67652 4.90292 6.06224 4.28489C5.71389 3.9328 5.36555 3.5882 5.01721 3.23611C4.65763 2.87653 4.30179 2.51321 3.93847 2.15737C3.3504 1.58429 2.61626 1.58429 2.03194 2.16112C1.58246 2.6031 1.15172 3.05632 0.694749 3.49082C0.271493 3.8916 0.0579922 4.38228 0.0130446 4.95536C-0.0581224 5.88802 0.170361 6.76824 0.492485 7.62599C1.15172 9.40142 2.15555 10.9783 3.37288 12.4241C5.01721 14.3794 6.97992 15.9263 9.27599 17.0425C10.3098 17.5444 11.381 17.9302 12.5459 17.9939C13.3475 18.0388 14.0442 17.8366 14.6023 17.2111C14.9843 16.7841 15.4151 16.3945 15.8196 15.9862C16.4189 15.3794 16.4227 14.6453 15.8271 14.046C15.1154 13.3306 14.4 12.6189 13.6846 11.9072Z" fill="currentColor"></path>
    <path d="M12.9694 8.92199L14.3516 8.68601C14.1343 7.41625 13.535 6.26634 12.6248 5.3524C11.6622 4.38978 10.4449 3.78298 9.10395 3.5957L8.90918 4.98533C9.94672 5.13141 10.8906 5.59961 11.636 6.345C12.3402 7.04917 12.8009 7.94063 12.9694 8.92199Z" fill="currentColor"></path>
    <path d="M15.1307 2.9141C13.5351 1.31846 11.5162 0.310887 9.28755 0L9.09277 1.38963C11.018 1.65931 12.7635 2.53205 14.1419 3.90669C15.4491 5.21392 16.3069 6.86574 16.6177 8.68237L17.9999 8.4464C17.6366 6.34135 16.644 4.43108 15.1307 2.9141Z" fill="currentColor"></path>
  </symbol>
  <symbol fill="none" xmlns="http://www.w3.org/2000/svg" viewBox="0 0 18 19" id="ic_tg">
    <path fill-rule="evenodd" clip-rule="evenodd" d="M18 9.96094C18 14.9315 13.9706 18.9609 9 18.9609C4.02944 18.9609 0 14.9315 0 9.96094C0 4.99037 4.02944 0.960938 9 0.960938C13.9706 0.960938 18 4.99037 18 9.96094ZM9.32249 7.60511C8.44711 7.96921 6.69757 8.72281 4.07389 9.8659C3.64784 10.0353 3.42466 10.2011 3.40435 10.3631C3.37001 10.637 3.71301 10.7449 4.18008 10.8918C4.24361 10.9117 4.30944 10.9324 4.37692 10.9544C4.83645 11.1037 5.45459 11.2785 5.77594 11.2854C6.06743 11.2917 6.39277 11.1716 6.75195 10.9249C9.20334 9.27016 10.4688 8.43377 10.5482 8.41573C10.6043 8.40301 10.6819 8.38702 10.7345 8.43379C10.7872 8.48057 10.782 8.56915 10.7764 8.59291C10.7424 8.73776 9.39606 9.98948 8.69931 10.6372C8.4821 10.8392 8.32802 10.9824 8.29653 11.0151C8.22597 11.0884 8.15407 11.1577 8.08496 11.2244C7.65805 11.6359 7.3379 11.9445 8.10268 12.4485C8.47019 12.6907 8.76428 12.891 9.05767 13.0908C9.37809 13.309 9.69768 13.5266 10.1112 13.7977C10.2165 13.8667 10.3171 13.9384 10.4151 14.0083C10.788 14.2741 11.123 14.513 11.5369 14.4749C11.7774 14.4528 12.0258 14.2266 12.152 13.5522C12.4501 11.9583 13.0362 8.50475 13.1716 7.08164C13.1835 6.95696 13.1686 6.79739 13.1566 6.72734C13.1446 6.65729 13.1195 6.55749 13.0285 6.48361C12.9207 6.39611 12.7542 6.37766 12.6797 6.37897C12.3412 6.38493 11.8219 6.56552 9.32249 7.60511Z" fill="currentColor"></path>
  </symbol>
  <symbol fill="none" xmlns="http://www.w3.org/2000/svg" viewBox="0 0 20 18" id="ic_tg2">
    <path d="M19.6667 0.637848L16.6616 17.2508C16.6616 17.2508 16.2415 18.4028 15.0856 17.8498L8.1197 12.0038C9.05597 11.081 16.3195 3.92073 16.6371 3.59603C17.1281 3.0935 16.8234 2.79443 16.2527 3.17448L5.52387 10.6452L1.38466 9.11728C1.38466 9.11728 0.733014 8.86378 0.670298 8.3108C0.607212 7.75782 1.40581 7.45834 1.40581 7.45834L18.28 0.200022C18.28 0.200022 19.6667 -0.468111 19.6667 0.637848Z" fill="currentColor"></path>
  </symbol>
  <symbol fill="none" xmlns="http://www.w3.org/2000/svg" viewBox="0 0 36 36" id="ic_video_play">
    <path d="M18 0C8.05155 0 0 8.05057 0 18C0 27.9485 8.05043 36 18 36C27.9485 36 36 27.9494 36 18C36 8.05148 27.9494 0 18 0ZM24.4855 19.9981L16.0273 24.8854C15.3138 25.2977 14.434 25.2984 13.7192 24.886C13.005 24.4738 12.5651 23.7118 12.5651 22.8873V13.1128C12.5651 12.2882 13.0051 11.5263 13.7192 11.1141C14.0761 10.9081 14.4745 10.8051 14.8728 10.8051C15.2715 10.8051 15.6702 10.9083 16.0273 11.1146L24.4856 16.0018C25.1992 16.4141 25.6387 17.1757 25.6387 17.9999C25.6387 18.8242 25.1991 19.5858 24.4855 19.9981Z" fill="currentColor"></path>
  </symbol>
  <symbol fill="none" xmlns="http://www.w3.org/2000/svg" viewBox="0 0 18 18" id="ic_vk">
    <path fill-rule="evenodd" clip-rule="evenodd" d="M1.77997 1.45282C0.584961 2.64783 0.584961 4.57115 0.584961 8.41781V9.09781C0.584961 12.9445 0.584961 14.8678 1.77997 16.0628C2.97497 17.2578 4.8983 17.2578 8.74496 17.2578H9.42496C13.2716 17.2578 15.1949 17.2578 16.39 16.0628C17.585 14.8678 17.585 12.9445 17.585 9.09781V8.41781C17.585 4.57115 17.585 2.64783 16.39 1.45282C15.1949 0.257812 13.2716 0.257812 9.42496 0.257812H8.74496C4.8983 0.257812 2.97497 0.257812 1.77997 1.45282ZM3.45375 5.42869C3.54582 9.84869 5.7558 12.5049 9.63039 12.5049H9.85001V9.97617C11.2738 10.1178 12.3504 11.1591 12.7824 12.5049H14.7942C14.2417 10.4933 12.7895 9.38117 11.8828 8.95617C12.7895 8.43201 14.0645 7.15701 14.3691 5.42869H12.5415C12.1449 6.83119 10.9692 8.10617 9.85001 8.22658V5.42869H8.02244V10.3303C6.88912 10.047 5.45832 8.67285 5.39457 5.42869H3.45375Z" fill="currentColor"></path>
  </symbol>
  <symbol fill="none" xmlns="http://www.w3.org/2000/svg" viewBox="0 0 18 19" id="ic_whatsapp">
    <path fill-rule="evenodd" clip-rule="evenodd" d="M9.03375 0.960938C11.43 0.960938 13.68 1.89469 15.39 3.54769L15.3787 3.57694C20.9827 9.15919 17.013 18.8072 9.03825 18.8072C8.95418 18.7965 8.83955 18.7902 8.69773 18.7823C7.96026 18.7415 6.48738 18.6598 4.75125 17.7219L0 18.9609L1.272 14.3394C-2.16225 8.41219 2.15625 0.960938 9.03375 0.960938ZM11.5935 11.0229C11.7982 11.0972 12.9045 11.5787 13.1302 11.6912C13.1543 11.702 13.1775 11.7123 13.1998 11.7223C13.3857 11.805 13.5082 11.8595 13.5577 11.9499C13.614 12.0512 13.614 12.4899 13.4227 13.0187C13.236 13.5474 12.3412 14.0199 11.9107 14.0882C11.5245 14.1437 11.0362 14.1677 10.5007 13.9974C8.51772 13.3164 7.43322 12.8259 5.39772 10.1619C4.36197 8.70242 4.05672 7.32992 5.26722 5.99942C5.54547 5.70992 5.86122 5.70392 6.29322 5.74142C6.30685 5.74142 6.32092 5.74089 6.3354 5.74034C6.46831 5.73528 6.6349 5.72894 6.79722 6.12392C6.87943 6.31663 7.01168 6.63681 7.13902 6.94511C7.3021 7.33992 7.45713 7.71525 7.48872 7.77842C7.54422 7.89017 7.58247 8.01392 7.50747 8.17142C7.33105 8.50528 7.14731 8.708 7.01022 8.85924C6.82211 9.06679 6.72185 9.1774 6.84897 9.39692C6.98097 9.62192 7.42797 10.3532 8.09397 10.9494C8.80956 11.5897 9.43216 11.8596 9.74808 11.9965C9.80963 12.0232 9.85953 12.0448 9.89622 12.0632C10.119 12.1644 10.2495 12.1532 10.3807 12.0069C10.6361 11.7144 10.8067 11.4946 10.9314 11.3339C11.2377 10.9393 11.2667 10.9019 11.5935 11.0229Z" fill="currentColor"></path>
  </symbol>
  <symbol fill="none" xmlns="http://www.w3.org/2000/svg" viewBox="0 0 20 20" id="ic_whatsapp2">
    <path d="M9.44805 0.0110843C4.34491 0.252103 0.317815 4.46768 0.333296 9.53531C0.33801 11.0788 0.713667 12.5356 1.37635 13.8229L0.358898 18.7217C0.303859 18.9867 0.544809 19.2188 0.810204 19.1564L5.64966 18.0191C6.89299 18.6335 8.28952 18.9883 9.76752 19.0107C14.9834 19.0897 19.3326 14.9816 19.4951 9.80979C19.6694 4.26595 15.0566 -0.253862 9.44805 0.0110843ZM15.2226 14.769C13.8053 16.1748 11.9209 16.949 9.9166 16.949C8.743 16.949 7.6194 16.6878 6.5769 16.1728L5.90295 15.8397L2.93586 16.537L3.56042 13.5297L3.22838 12.8848C2.6872 11.8335 2.41279 10.6966 2.41279 9.50588C2.41279 7.51773 3.19331 5.64862 4.61058 4.24275C6.0152 2.84949 7.93031 2.06268 9.91674 2.06268C11.921 2.06272 13.8053 2.83693 15.2226 4.24271C16.6399 5.64853 17.4204 7.51764 17.4205 9.50574C17.4204 11.4762 16.6272 13.3758 15.2226 14.769Z" fill="currentColor"></path>
    <path d="M14.7892 11.6139L12.7743 11.0875C12.5094 11.0184 12.2242 11.0867 12.0312 11.2656L11.5384 11.7223C11.3307 11.9149 11.0154 11.9768 10.7404 11.8756C9.78729 11.5247 7.78228 9.90284 7.27024 9.09161C7.12252 8.8576 7.14695 8.56504 7.32833 8.35152L7.7585 7.84521C7.92704 7.64684 7.9626 7.38043 7.85115 7.15112L7.00344 5.40687C6.80039 4.98909 6.21356 4.86747 5.83019 5.16245C5.26784 5.59515 4.60061 6.25269 4.5195 6.98114C4.37649 8.26545 4.98193 9.88445 7.27139 11.8284C9.91635 14.0743 12.0344 14.371 13.4135 14.0671C14.1957 13.8947 14.8208 13.2038 15.2153 12.638C15.4842 12.2522 15.2719 11.74 14.7892 11.6139Z" fill="currentColor"></path>
  </symbol>
  <symbol fill="none" xmlns="http://www.w3.org/2000/svg" viewBox="0 0 100 100" id="ic_zoom">
    <path d="M99.0844 94.6312L68.7188 64.0812C74.3781 57.3031 77.7875 48.5812 77.7875 39.0593C77.7875 17.4843 60.3 -0.00317383 38.725 -0.00317383C17.15 -0.00317383 -0.337494 17.4843 -0.337494 39.0593C-0.337494 60.6343 17.15 78.1218 38.725 78.1218C48.525 78.1218 57.4813 74.5031 64.3406 68.5374L94.6625 99.0499C95.8813 100.269 97.8625 100.269 99.0844 99.0499C100.306 97.8312 100.303 95.8562 99.0844 94.6312ZM38.7281 71.9249C20.5781 71.9249 5.86251 57.2093 5.86251 39.0593C5.86251 20.9093 20.575 6.1937 38.7281 6.1937C56.8781 6.1937 71.5906 20.9062 71.5906 39.0593C71.5906 57.2125 56.8781 71.9249 38.7281 71.9249Z" fill="currentColor"></path>
  </symbol>
</svg>