<svg width="224" height="196" viewBox="0 0 224 196" fill="none" xmlns="http://www.w3.org/2000/svg">
<g id="Frame 534">
<g id="Group">
<g id="Group_2">
<path id="Vector" d="M221.665 52.2021C220.868 51.2742 219.633 50.8453 218.432 51.0788L147.224 64.9121C145.377 65.2709 144.17 67.0591 144.529 68.9063C144.888 70.7531 146.676 71.9597 148.524 71.6013L199.614 61.6763L91.9559 115.244L57.1186 89.3575L118.888 77.3581C120.736 76.999 121.942 75.2108 121.583 73.3635C121.225 71.5167 119.436 70.3094 117.589 70.6686L48.2369 84.1409C46.9118 84.3985 45.8634 85.4136 45.5641 86.7303C45.2648 88.0469 45.7708 89.4157 46.8542 90.2207L88.4587 121.135L95.7043 165.966C95.712 166.012 95.7224 166.053 95.7348 166.09C95.8744 166.786 96.2228 167.437 96.7691 167.937C97.1111 168.249 97.5044 168.482 97.9243 168.632C98.7469 168.925 99.6695 168.896 100.494 168.516L132.424 153.803L172.123 183.302C172.398 183.506 172.697 183.665 173.012 183.777C173.691 184.019 174.439 184.042 175.145 183.827C176.179 183.513 177.003 182.728 177.365 181.71L222.292 55.5668C222.702 54.4142 222.463 53.1297 221.665 52.2021ZM108.528 130.512C107.965 130.917 107.539 131.483 107.306 132.136L100.314 151.771L95.3659 121.158L180.611 78.7431L108.528 130.512ZM104.994 158.94L112.181 138.761L126.192 149.173L104.994 158.94ZM172.491 175.085L116.292 133.326L211.791 64.7406L172.491 175.085Z" fill="#E6E6E3"/>
</g>
</g>
<g id="Group_3">
<g id="Group_4">
<path id="Vector_2" d="M72.1376 124.187C71.3303 122.487 69.2985 121.763 67.5981 122.57L26.9627 141.862C25.2629 142.669 24.539 144.702 25.3459 146.402C25.75 147.252 26.4598 147.857 27.2811 148.15C28.1025 148.442 29.0355 148.422 29.8856 148.018L70.521 128.726C72.2207 127.919 72.9445 125.887 72.1376 124.187Z" fill="#E6E6E3"/>
</g>
</g>
<g id="Group_5">
<g id="Group_6">
<path id="Vector_3" d="M18.0079 149.885C17.2003 148.186 15.1686 147.462 13.4685 148.269L3.45682 153.022C1.757 153.829 1.03315 155.861 1.84004 157.561C2.24376 158.411 2.95356 159.017 3.77494 159.31C4.59631 159.602 5.52937 159.581 6.37939 159.178L16.3911 154.425C18.0909 153.618 18.8148 151.585 18.0079 149.885Z" fill="#E6E6E3"/>
</g>
</g>
<g id="Group_7">
<g id="Group_8">
<path id="Vector_4" d="M48.3709 168.805C47.9868 167.996 47.281 167.357 46.4369 167.056C45.5892 166.755 44.6423 166.804 43.8326 167.189C43.023 167.573 42.3857 168.276 42.0839 169.123C41.7833 169.967 41.8315 170.918 42.2162 171.727C42.6006 172.537 43.3064 173.175 44.1505 173.476C44.9947 173.777 45.9451 173.728 46.7545 173.344C47.5641 172.959 48.2028 172.254 48.5035 171.409C48.8053 170.562 48.7556 169.615 48.3709 168.805Z" fill="#E6E6E3"/>
</g>
</g>
<g id="Group_9">
<g id="Group_10">
<path id="Vector_5" d="M80.7579 153.428C79.9516 151.729 77.9198 151.005 76.2187 151.812L54.6954 162.03C52.9956 162.837 52.2717 164.869 53.0787 166.569C53.4823 167.419 54.1921 168.025 55.0135 168.317C55.8349 168.61 56.7679 168.589 57.6179 168.186L79.1413 157.968C80.8411 157.161 81.565 155.128 80.7579 153.428Z" fill="#E6E6E3"/>
</g>
</g>
<g id="Group_11">
<g id="Group_12">
<path id="Vector_6" d="M135.967 171.718C135.16 170.019 133.128 169.295 131.428 170.102L109.846 180.348C108.146 181.155 107.423 183.187 108.23 184.887C108.633 185.737 109.343 186.343 110.164 186.636C110.986 186.928 111.919 186.907 112.769 186.504L134.351 176.258C136.05 175.451 136.774 173.418 135.967 171.718Z" fill="#E6E6E3"/>
</g>
</g>
<g id="Group_13">
<g id="Group_14">
<path id="Vector_7" d="M134.509 69.9878C134.125 69.1781 133.419 68.5398 132.575 68.2391C131.731 67.9385 130.78 67.987 129.971 68.3713C129.161 68.7558 128.523 69.4615 128.221 70.3089C127.92 71.1531 127.97 72.1003 128.354 72.9099C128.738 73.7228 129.445 74.358 130.289 74.6586C131.133 74.9593 132.082 74.914 132.893 74.5264C133.702 74.1419 134.34 73.4394 134.64 72.5952C134.942 71.7479 134.894 70.7974 134.509 69.9878Z" fill="#E6E6E3"/>
</g>
</g>
</g>
</svg>
